<svg width="145" height="36" fill="none" xmlns="http://www.w3.org/2000/svg">
  <g filter="url(#a)">
    <mask id="b" maskUnits="userSpaceOnUse" x="4" y="0" width="137" height="28" fill="#000">
      <path fill="#fff" d="M4 0h137v28H4z"/>
      <path d="M20.15 5.106c0 .746-.189 1.441-.567 2.087a5.767 5.767 0 0 1-1.454 1.678 7.161 7.161 0 0 1-1.98 1.119c-.73.263-1.45.386-2.161.368h-.222v-.246a5.774 5.774 0 0 0 1.717-.655 5.626 5.626 0 0 0 1.413-1.159c.406-.455.725-.964.956-1.528.24-.564.36-1.155.36-1.773 0-.41-.051-.796-.153-1.16a2.592 2.592 0 0 0-.47-.94 2.245 2.245 0 0 0-.818-.628c-.323-.155-.71-.232-1.163-.232-.646 0-1.302.095-1.966.286a9.073 9.073 0 0 0-1.925.805c-.619.346-1.2.755-1.745 1.228A9.41 9.41 0 0 0 8.559 5.91a7.639 7.639 0 0 0-.942 1.8 5.682 5.682 0 0 0-.346 1.951c0 .71.102 1.323.305 1.842.212.509.494.96.845 1.35.36.382.775.71 1.246.982.47.273.974.523 1.51.75.535.219 1.08.423 1.634.614.563.191 1.112.396 1.648.614.535.218 1.038.464 1.51.737a5.1 5.1 0 0 1 1.232.955c.36.363.641.8.845 1.31.212.5.318 1.09.318 1.773 0 .745-.157 1.41-.47 1.991a4.383 4.383 0 0 1-1.22 1.46c-.507.4-1.089.7-1.744.9a6.61 6.61 0 0 1-2.022.314c-.748 0-1.44-.127-2.078-.382a5.991 5.991 0 0 1-1.717-1.01 6.966 6.966 0 0 1-1.33-1.46 8.252 8.252 0 0 1-.913-1.704l.207-.11c.277.483.596.956.956 1.42.36.472.766.89 1.219 1.254.452.373.95.673 1.495.9a4.695 4.695 0 0 0 1.8.342 4.77 4.77 0 0 0 1.468-.219 3.542 3.542 0 0 0 1.178-.627c.332-.273.59-.61.775-1.01.194-.4.291-.854.291-1.364 0-.745-.162-1.36-.485-1.841a4.29 4.29 0 0 0-1.274-1.228 8.64 8.64 0 0 0-1.8-.86 134.68 134.68 0 0 0-2.077-.709 26.99 26.99 0 0 1-2.064-.818 7.318 7.318 0 0 1-1.8-1.16 5.258 5.258 0 0 1-1.274-1.718C5.162 12.259 5 11.413 5 10.412c0-.909.143-1.764.43-2.564.286-.81.678-1.55 1.176-2.224a9.49 9.49 0 0 1 1.787-1.8 11.645 11.645 0 0 1 2.202-1.364c.794-.373 1.62-.655 2.479-.846.858-.2 1.722-.3 2.59-.3.618 0 1.2.073 1.744.218.554.146 1.03.373 1.427.682.406.3.725.691.955 1.173.24.482.36 1.055.36 1.719ZM26.549 12.936c0 .1-.037.191-.111.273a.362.362 0 0 1-.263.109.597.597 0 0 1-.264-.068 8.123 8.123 0 0 0-.318-.178 1.828 1.828 0 0 0-.402-.163 1.474 1.474 0 0 0-.512-.082c-.452 0-.859.14-1.219.423-.35.273-.65.614-.9 1.023-.24.41-.424.846-.554 1.31-.13.463-.194.882-.194 1.254 0 .264.023.523.07.778.046.245.124.473.235.682.12.2.282.364.485.491.203.118.461.177.775.177.333 0 .651-.059.956-.177.305-.127.59-.291.858-.491.01-.291.056-.596.139-.914.092-.327.208-.646.346-.955.139-.318.296-.618.471-.9.185-.282.374-.532.568-.75l.18.109c-.102.309-.176.627-.222.955-.046.327-.069.65-.069.968 0 .328.028.637.083.928.055.29.152.545.29.764.14.209.329.377.569.504.24.119.549.178.928.178.461 0 .886-.105 1.274-.314.387-.21.729-.473 1.024-.791l.111.054a4.272 4.272 0 0 1-.65.914 5.738 5.738 0 0 1-.9.791c-.324.228-.67.41-1.04.546-.369.136-.733.205-1.093.205-.508 0-.924-.146-1.247-.437a2.152 2.152 0 0 1-.665-1.078 5.875 5.875 0 0 1-1.301.969c-.471.255-.97.382-1.496.382a2.38 2.38 0 0 1-1.039-.218 2.17 2.17 0 0 1-.748-.56 2.547 2.547 0 0 1-.47-.832 3.432 3.432 0 0 1-.153-1.023c0-.409.065-.827.194-1.255.139-.436.323-.864.554-1.282a7.54 7.54 0 0 1 .845-1.187 6.65 6.65 0 0 1 1.052-.982 5.327 5.327 0 0 1 1.219-.668 3.591 3.591 0 0 1 1.302-.246c.101 0 .226.014.374.041.147.018.29.055.429.11a.924.924 0 0 1 .346.231c.102.1.153.227.153.382Z"/>
      <path d="M42.184 18.133a10.68 10.68 0 0 1-.568.942c-.194.3-.416.563-.665.79-.25.228-.53.41-.845.546a2.687 2.687 0 0 1-1.08.205c-.461 0-.858-.114-1.19-.341a3.007 3.007 0 0 1-.86-.873 5.539 5.539 0 0 1-.567-1.269 15.056 15.056 0 0 1-.346-1.446 16.532 16.532 0 0 1-.208-1.446l-.125-1.296c-.175.137-.387.4-.637.792-.25.382-.503.832-.762 1.35a21.268 21.268 0 0 0-.747 1.692c-.231.609-.42 1.21-.568 1.8-.028.127-.074.26-.139.396-.055.136-.129.259-.221.368a1.007 1.007 0 0 1-.305.287.697.697 0 0 1-.401.122c-.24 0-.416-.081-.527-.245a1.781 1.781 0 0 1-.221-.56 27.368 27.368 0 0 1-.568-3.314 33.024 33.024 0 0 1-.152-3.165c0-.255.041-.473.124-.655.093-.19.213-.345.36-.464.148-.127.323-.218.527-.272.203-.064.415-.096.637-.096h.124c.065 0 .125.01.18.027.056.01.102.028.139.055a.1.1 0 0 1 .041.11 17.725 17.725 0 0 0-.346 3.641c.01 1.228.074 2.41.194 3.547.101-.455.25-.969.443-1.541.203-.582.434-1.165.693-1.747.267-.59.553-1.15.858-1.677.314-.537.633-.987.956-1.35.157-.174.314-.32.47-.437a.972.972 0 0 1 .61-.191c.138 0 .254.027.346.082a.68.68 0 0 1 .222.204c.064.082.11.177.138.287.037.1.065.2.083.3.047.263.093.604.139 1.023.046.418.101.864.166 1.337.074.473.162.95.263 1.432.102.473.23.905.388 1.296.157.382.346.695.568.941.221.246.484.368.789.368.25 0 .49-.045.72-.136.24-.1.466-.223.679-.368.212-.155.41-.328.595-.519.185-.2.351-.395.499-.586l.097.054ZM50.396 18.133c-.203.337-.443.65-.72.942a4.794 4.794 0 0 1-.9.763 3.996 3.996 0 0 1-1.053.505c-.378.127-.77.191-1.177.191-.6 0-1.13-.1-1.593-.3a3.79 3.79 0 0 1-1.177-.805 4.666 4.666 0 0 1-.83-1.2 7.715 7.715 0 0 1-.527-1.419c-.13-.5-.221-1.01-.277-1.528a14.01 14.01 0 0 1-.083-1.487c0-.436.019-.882.056-1.336.036-.464.092-.937.166-1.42-.286.01-.568.014-.845.014h-.803c-.176 0-.374-.004-.596-.013a2.289 2.289 0 0 1-.623-.11 1.22 1.22 0 0 1-.485-.286c-.129-.127-.194-.313-.194-.559 0-.136.028-.246.084-.327a.397.397 0 0 1 .207-.178.747.747 0 0 1 .305-.082c.11-.018.226-.027.346-.027.139 0 .466.023.983.068.517.046 1.14.096 1.87.15a26.83 26.83 0 0 1 .886-3.164c.37-1.037.785-1.983 1.247-2.838h.194a47.78 47.78 0 0 0-.79 3.001 28.357 28.357 0 0 0-.498 3.07c.674.045 1.366.086 2.077.122.72.028 1.422.041 2.105.041 1.006 0 1.823-.009 2.451-.027.628-.018 1.122-.04 1.482-.068.425-.037.743-.073.956-.11l.055.233c-.554.127-1.187.25-1.897.368-.711.109-1.468.21-2.272.3-.803.082-1.634.155-2.492.218a82.49 82.49 0 0 1-2.562.15 5.525 5.525 0 0 0-.028.56v.545c0 .437.018.919.055 1.446.046.528.125 1.06.236 1.596.11.528.258 1.046.443 1.555.194.5.443.946.748 1.337.314.382.688.691 1.121.928.434.236.947.354 1.538.354.544 0 1.034-.118 1.468-.354a6.77 6.77 0 0 0 1.26-.873l.083.054Z"/>
      <path d="M57.639 16.06c0 .636-.106 1.228-.319 1.773a4.204 4.204 0 0 1-.9 1.419c-.388.4-.854.714-1.398.941a4.528 4.528 0 0 1-1.787.341c-.582 0-1.108-.109-1.579-.327a3.612 3.612 0 0 1-1.19-.86 3.77 3.77 0 0 1-.762-1.268 4.63 4.63 0 0 1-.264-1.569c0-.464.065-.905.194-1.323.139-.418.328-.805.568-1.16a5.19 5.19 0 0 1 .859-.995c.332-.31.692-.587 1.08-.833l.166.123a5.333 5.333 0 0 0-.914 1.473 4.424 4.424 0 0 0-.332 1.706c0 .436.064.882.194 1.336.138.446.337.855.595 1.228.259.373.582.678.97.914.387.236.83.355 1.329.355.314 0 .61-.064.886-.191.277-.128.517-.3.72-.519.213-.218.379-.463.499-.736.13-.282.194-.573.194-.873 0-.291-.046-.573-.139-.846a2.858 2.858 0 0 0-.36-.778 2.981 2.981 0 0 0-.567-.654 3.15 3.15 0 0 0-.72-.492 2.3 2.3 0 0 0-.43-.163l-.43-.123a2.116 2.116 0 0 1-.207-.04 4.926 4.926 0 0 1-.208-.083.601.601 0 0 1-.166-.136.306.306 0 0 1-.07-.205c0-.163.06-.313.181-.45.12-.136.263-.255.43-.354.166-.11.34-.192.526-.246a1.52 1.52 0 0 1 .484-.096c.471 0 .886.119 1.247.355.36.236.66.537.9.9.24.364.42.764.54 1.2.12.437.18.856.18 1.256ZM66.571 17.151c0 .473-.087.919-.263 1.337-.175.418-.42.782-.734 1.091-.314.31-.683.555-1.108.737a3.347 3.347 0 0 1-2.312.123 3.358 3.358 0 0 1-.873-.423 3.194 3.194 0 0 1-.678-.682 2.547 2.547 0 0 1-.416-.873l.319-.082c.24.29.517.532.83.723.324.19.688.286 1.095.286.341 0 .655-.073.941-.218a2.33 2.33 0 0 0 .748-.573c.212-.236.374-.51.485-.818.12-.319.18-.642.18-.969 0-.391-.056-.714-.166-.968a1.876 1.876 0 0 0-.444-.655 2.67 2.67 0 0 0-.595-.464 44.864 44.864 0 0 0-.679-.41 6.092 6.092 0 0 1-.65-.463 2.303 2.303 0 0 1-.527-.668c-.009.536-.101 1.1-.277 1.691a8.713 8.713 0 0 1-.72 1.719 9.9 9.9 0 0 1-1.025 1.555 7.018 7.018 0 0 1-1.232 1.214l-.111-.191a4.42 4.42 0 0 0 .776-1.16 8.64 8.64 0 0 0 .54-1.46c.147-.518.254-1.036.318-1.554.074-.519.111-.992.111-1.419 0-.227-.023-.45-.07-.668a3.097 3.097 0 0 1-.069-.641c0-.255.074-.45.222-.587a.875.875 0 0 1 .596-.205c.184 0 .332.041.443.123.11.082.212.191.304.328.093.127.185.277.277.45.093.163.208.336.347.518.147.173.327.346.54.518.221.164.503.31.844.437.397.146.776.314 1.136.505.37.182.692.4.97.654.286.255.512.56.678.914.166.346.25.755.25 1.228ZM79.797 18.079c-.157.327-.351.654-.582.982-.221.318-.47.61-.748.873a3.872 3.872 0 0 1-.914.627 2.38 2.38 0 0 1-1.066.246c-.415 0-.776-.11-1.08-.327a2.713 2.713 0 0 1-.776-.833 5.436 5.436 0 0 1-.526-1.214 13.592 13.592 0 0 1-.346-1.405 26.17 26.17 0 0 1-.236-1.446c-.055-.482-.11-.923-.166-1.323a9.919 9.919 0 0 0-.803 1.214c-.24.428-.47.873-.692 1.337-.222.455-.439.919-.651 1.392-.213.472-.439.94-.679 1.404-.055.1-.11.21-.166.328-.055.109-.12.21-.194.3a.957.957 0 0 1-.263.245.663.663 0 0 1-.36.096.745.745 0 0 1-.333-.068.826.826 0 0 1-.36-.396 3.125 3.125 0 0 1-.069-.232c-.11-.39-.212-.882-.305-1.473a48.284 48.284 0 0 1-.374-3.942 49.26 49.26 0 0 1-.041-1.937c0-.846.055-1.714.166-2.606.11-.9.282-1.778.513-2.632.24-.855.54-1.66.9-2.415a9.004 9.004 0 0 1 1.302-2.005 5.905 5.905 0 0 1 1.703-1.364C73.297 1.168 74.017 1 74.81 1c.526 0 .942.155 1.247.464.304.3.457.732.457 1.296a6.67 6.67 0 0 1-.457 2.441 11.32 11.32 0 0 1-1.15 2.224c-.461.71-.978 1.382-1.55 2.019a54.014 54.014 0 0 1-1.635 1.746l-.18-.136c.23-.255.475-.569.734-.942.268-.382.526-.79.775-1.227.259-.446.504-.91.734-1.392.231-.49.434-.973.61-1.446.175-.473.314-.927.415-1.364.102-.446.153-.85.153-1.214a2.6 2.6 0 0 0-.056-.546 1.173 1.173 0 0 0-.194-.45.917.917 0 0 0-.36-.313.992.992 0 0 0-.512-.123c-.406 0-.79.154-1.15.464-.35.309-.673.727-.969 1.255a10.186 10.186 0 0 0-.79 1.814 24.053 24.053 0 0 0-.581 2.169 23.703 23.703 0 0 0-.36 2.291c-.083.773-.125 1.51-.125 2.21v1.433c0 .482.01.986.028 1.514.028.527.07 1.086.125 1.678.064.59.152 1.232.263 1.923.406-1.037.835-2.05 1.288-3.042.452-1 .941-1.914 1.468-2.742l.221-.354c.083-.119.171-.223.263-.314.093-.1.194-.182.305-.246a.711.711 0 0 1 .36-.095.51.51 0 0 1 .374.136.882.882 0 0 1 .222.314c.055.127.092.264.11.41.028.145.051.277.07.395.037.264.078.604.124 1.023.046.418.102.868.166 1.35.065.473.143.95.236 1.433.101.482.226.918.374 1.31.157.381.341.695.554.94.212.246.466.369.761.369.24 0 .48-.05.72-.15a3.732 3.732 0 0 0 1.302-.914c.194-.2.356-.396.485-.587l.11.055ZM115.734 26.413a2.738 2.738 0 0 1-1.025.464c-.36.082-.724.123-1.094.123-1.265 0-2.391-.186-3.379-.56a8.394 8.394 0 0 1-2.589-1.514 9.558 9.558 0 0 1-1.898-2.277 15.474 15.474 0 0 1-1.301-2.824 20.373 20.373 0 0 1-.79-3.165 30.894 30.894 0 0 1-.374-3.287 37.962 37.962 0 0 1-.055-3.22c.037-1.055.101-2.032.194-2.933-.166.246-.37.637-.61 1.173a69.97 69.97 0 0 0-.803 1.883 94.444 94.444 0 0 0-.9 2.36c-.314.846-.628 1.7-.942 2.564l-.9 2.551c-.286.828-.545 1.583-.775 2.265-.222.682-.416 1.26-.582 1.732-.157.482-.259.805-.305.969a9.09 9.09 0 0 1-.152.409c-.055.164-.13.323-.222.477a1.47 1.47 0 0 1-.304.396.536.536 0 0 1-.804-.041 1.636 1.636 0 0 1-.276-.464 6.097 6.097 0 0 1-.167-.545 13.907 13.907 0 0 1-.083-.437 23.099 23.099 0 0 1-.152-1.446 71.762 71.762 0 0 1-.125-1.937 141.6 141.6 0 0 1-.069-2.264l-.055-2.428-.028-2.401c0-.791-.005-1.528-.014-2.21V6.66a60.87 60.87 0 0 0-.734 1.732c-.277.7-.582 1.487-.914 2.36a255.6 255.6 0 0 0-1.025 2.824c-.35 1-.701 2.033-1.052 3.097a164.894 164.894 0 0 0-.997 3.219 77.23 77.23 0 0 0-.845 3.151c-.028.091-.065.2-.11.328a1.741 1.741 0 0 1-.153.381.99.99 0 0 1-.25.3.473.473 0 0 1-.346.137.537.537 0 0 1-.346-.123 1.192 1.192 0 0 1-.263-.3 1.948 1.948 0 0 1-.166-.368 1.836 1.836 0 0 1-.07-.355 11.586 11.586 0 0 1-.124-.75c-.028-.273-.056-.555-.083-.846l-.056-.846a71.656 71.656 0 0 0-.055-.764 85.189 85.189 0 0 1-.222-3.696 121.368 121.368 0 0 1 0-7.312c.047-1.2.111-2.414.194-3.642.028-.355.07-.75.125-1.187.055-.446.161-.864.318-1.255.167-.391.402-.718.707-.982.314-.264.738-.396 1.274-.396.129 0 .24.032.332.096.093.054.139.154.139.3V1.9l-.25 1.637c-.083.537-.17 1.087-.263 1.65-.221 1.82-.41 3.638-.568 5.457a67.22 67.22 0 0 0-.221 5.47c0 .719.014 1.428.041 2.128.028.7.079 1.405.153 2.115A821.86 821.86 0 0 0 91 15.187l1.288-3.942c.37-1.128.679-2.088.928-2.879l.651-2.005c.175-.537.314-.964.416-1.282.101-.328.184-.578.249-.75.065-.182.11-.314.138-.396.028-.082.056-.155.083-.218.139-.31.328-.587.568-.833.24-.245.55-.368.928-.368.259 0 .466.064.623.191.166.127.296.287.388.478.092.19.152.4.18.627.037.227.056.437.056.628-.019 1.41-.06 2.805-.125 4.187-.065 1.374-.12 2.738-.166 4.093-.046 1.355-.07 2.7-.07 4.038.01 1.336.074 2.669.194 3.996.37-1.073.711-2.082 1.025-3.028.314-.955.61-1.864.886-2.728.287-.864.559-1.696.817-2.497.268-.8.541-1.591.818-2.373.286-.782.581-1.564.886-2.346.305-.782.642-1.587 1.011-2.415.083-.164.175-.327.277-.49.101-.174.217-.328.346-.465.129-.136.277-.25.443-.34.166-.092.351-.137.554-.137.286 0 .513.09.679.273.166.182.291.4.374.654.092.255.152.523.18.805.027.273.041.505.041.696 0 .837-.028 1.764-.083 2.783-.055 1.01-.097 2.06-.125 3.15a57.564 57.564 0 0 0 .042 3.316c.046 1.118.171 2.2.374 3.246a13.95 13.95 0 0 0 .9 2.933c.397.91.933 1.7 1.607 2.374.673.682 1.504 1.218 2.492 1.61.997.39 2.193.586 3.587.586.212 0 .416-.018.609-.055.204-.027.397-.081.582-.163l.083.272Z"/>
      <path d="M115.208 12.936c0 .1-.037.191-.111.273a.361.361 0 0 1-.263.109.595.595 0 0 1-.263-.068 7.957 7.957 0 0 0-.319-.178 1.806 1.806 0 0 0-.401-.163 1.478 1.478 0 0 0-.513-.082c-.452 0-.858.14-1.218.423a3.745 3.745 0 0 0-.9 1.023c-.241.41-.425.846-.554 1.31-.13.463-.194.882-.194 1.254 0 .264.023.523.069.778.046.245.125.473.235.682.12.2.282.364.485.491.203.118.462.177.776.177.332 0 .65-.059.955-.177a4.02 4.02 0 0 0 .859-.491 4.13 4.13 0 0 1 .138-.914c.093-.327.208-.646.346-.955.139-.318.296-.618.471-.9.185-.282.374-.532.568-.75l.18.109c-.101.309-.175.627-.221.955-.047.327-.07.65-.07.968 0 .328.028.637.083.928.056.29.153.545.291.764.139.209.328.377.568.504.24.119.549.178.928.178a2.64 2.64 0 0 0 1.274-.314c.388-.21.729-.473 1.025-.791l.111.054a4.33 4.33 0 0 1-.651.914 5.764 5.764 0 0 1-.9.791c-.324.228-.67.41-1.039.546a3.141 3.141 0 0 1-1.094.205c-.508 0-.923-.146-1.247-.437a2.151 2.151 0 0 1-.664-1.078 5.886 5.886 0 0 1-1.302.969 3.098 3.098 0 0 1-1.496.382c-.387 0-.734-.073-1.038-.218a2.165 2.165 0 0 1-.748-.56 2.552 2.552 0 0 1-.471-.832 3.419 3.419 0 0 1-.152-1.023c0-.409.064-.827.193-1.255a7.18 7.18 0 0 1 .554-1.282c.24-.418.522-.814.845-1.187.323-.373.674-.7 1.053-.982a5.32 5.32 0 0 1 1.218-.668 3.594 3.594 0 0 1 1.302-.246c.102 0 .226.014.374.041.148.018.291.055.429.11a.929.929 0 0 1 .347.231c.101.1.152.227.152.382Z"/>
      <path d="M130.843 18.133c-.175.328-.365.641-.568.942-.194.3-.415.563-.664.79-.25.228-.531.41-.845.546a2.688 2.688 0 0 1-1.08.205c-.462 0-.859-.114-1.191-.341a2.999 2.999 0 0 1-.859-.873 5.539 5.539 0 0 1-.568-1.269 15.056 15.056 0 0 1-.346-1.446 16.573 16.573 0 0 1-.208-1.446l-.124-1.296c-.176.137-.388.4-.637.792-.25.382-.504.832-.762 1.35a21.051 21.051 0 0 0-.748 1.692c-.231.609-.42 1.21-.568 1.8-.027.127-.074.26-.138.396-.056.136-.129.259-.222.368a1.005 1.005 0 0 1-.304.287.698.698 0 0 1-.402.122c-.24 0-.416-.081-.526-.245a1.765 1.765 0 0 1-.222-.56 27.35 27.35 0 0 1-.568-3.314 33.187 33.187 0 0 1-.152-3.165c0-.255.042-.473.125-.655.092-.19.212-.345.36-.464.147-.127.323-.218.526-.272.203-.064.415-.096.637-.096h.125c.064 0 .124.01.18.027.055.01.101.028.138.055a.101.101 0 0 1 .042.11 17.74 17.74 0 0 0-.347 3.641c.01 1.228.074 2.41.194 3.547.102-.455.25-.969.443-1.541.204-.582.434-1.165.693-1.747.268-.59.554-1.15.859-1.677.313-.537.632-.987.955-1.35.157-.174.314-.32.471-.437a.971.971 0 0 1 .609-.191c.139 0 .254.027.347.082a.676.676 0 0 1 .221.204.755.755 0 0 1 .139.287c.037.1.064.2.083.3.046.263.092.604.138 1.023.046.418.102.864.166 1.337.074.473.162.95.263 1.432.102.473.231.905.388 1.296.157.382.346.695.568.941.222.246.485.368.789.368.25 0 .49-.045.721-.136.24-.1.466-.223.678-.368.212-.155.411-.328.596-.519.184-.2.35-.395.498-.586l.097.054Z"/>
      <path d="M139 18.133c-.24.346-.531.669-.872.969-.333.3-.702.56-1.108.777a6.092 6.092 0 0 1-1.261.519 4.648 4.648 0 0 1-1.315.19 6.085 6.085 0 0 1-1.759-.245 3.966 3.966 0 0 1-1.426-.723 3.414 3.414 0 0 1-.956-1.228c-.231-.5-.346-1.082-.346-1.746 0-.654.12-1.264.36-1.828a4.678 4.678 0 0 1 1.011-1.486 4.825 4.825 0 0 1 1.523-1.01 4.76 4.76 0 0 1 1.87-.368c.314 0 .604.045.872.136.277.082.517.21.72.382.203.164.36.369.471.614.12.246.18.527.18.846 0 .382-.078.718-.235 1.01a2.63 2.63 0 0 1-.623.763c-.259.218-.554.4-.887.546a6.165 6.165 0 0 1-1.024.354c-.351.091-.702.16-1.053.205a8.964 8.964 0 0 1-.942.055h-.332c.12.827.452 1.46.997 1.896.545.436 1.297.655 2.257.655.684 0 1.348-.119 1.995-.355a6.217 6.217 0 0 0 1.772-.982l.111.054Zm-7.174-1.678h.347c.332 0 .674-.05 1.024-.15a3.24 3.24 0 0 0 .942-.463c.286-.21.522-.464.706-.764.185-.3.277-.641.277-1.023 0-.373-.083-.682-.249-.928-.157-.246-.434-.368-.831-.368a1.54 1.54 0 0 0-1.038.368 2.747 2.747 0 0 0-.679.887 4.506 4.506 0 0 0-.388 1.105 5.442 5.442 0 0 0-.111 1.023v.313Z"/>
    </mask>
    <path d="M20.15 5.106c0 .746-.189 1.441-.567 2.087a5.767 5.767 0 0 1-1.454 1.678 7.161 7.161 0 0 1-1.98 1.119c-.73.263-1.45.386-2.161.368h-.222v-.246a5.774 5.774 0 0 0 1.717-.655 5.626 5.626 0 0 0 1.413-1.159c.406-.455.725-.964.956-1.528.24-.564.36-1.155.36-1.773 0-.41-.051-.796-.153-1.16a2.592 2.592 0 0 0-.47-.94 2.245 2.245 0 0 0-.818-.628c-.323-.155-.71-.232-1.163-.232-.646 0-1.302.095-1.966.286a9.073 9.073 0 0 0-1.925.805c-.619.346-1.2.755-1.745 1.228A9.41 9.41 0 0 0 8.559 5.91a7.639 7.639 0 0 0-.942 1.8 5.682 5.682 0 0 0-.346 1.951c0 .71.102 1.323.305 1.842.212.509.494.96.845 1.35.36.382.775.71 1.246.982.47.273.974.523 1.51.75.535.219 1.08.423 1.634.614.563.191 1.112.396 1.648.614.535.218 1.038.464 1.51.737a5.1 5.1 0 0 1 1.232.955c.36.363.641.8.845 1.31.212.5.318 1.09.318 1.773 0 .745-.157 1.41-.47 1.991a4.383 4.383 0 0 1-1.22 1.46c-.507.4-1.089.7-1.744.9a6.61 6.61 0 0 1-2.022.314c-.748 0-1.44-.127-2.078-.382a5.991 5.991 0 0 1-1.717-1.01 6.966 6.966 0 0 1-1.33-1.46 8.252 8.252 0 0 1-.913-1.704l.207-.11c.277.483.596.956.956 1.42.36.472.766.89 1.219 1.254.452.373.95.673 1.495.9a4.695 4.695 0 0 0 1.8.342 4.77 4.77 0 0 0 1.468-.219 3.542 3.542 0 0 0 1.178-.627c.332-.273.59-.61.775-1.01.194-.4.291-.854.291-1.364 0-.745-.162-1.36-.485-1.841a4.29 4.29 0 0 0-1.274-1.228 8.64 8.64 0 0 0-1.8-.86 134.68 134.68 0 0 0-2.077-.709 26.99 26.99 0 0 1-2.064-.818 7.318 7.318 0 0 1-1.8-1.16 5.258 5.258 0 0 1-1.274-1.718C5.162 12.259 5 11.413 5 10.412c0-.909.143-1.764.43-2.564.286-.81.678-1.55 1.176-2.224a9.49 9.49 0 0 1 1.787-1.8 11.645 11.645 0 0 1 2.202-1.364c.794-.373 1.62-.655 2.479-.846.858-.2 1.722-.3 2.59-.3.618 0 1.2.073 1.744.218.554.146 1.03.373 1.427.682.406.3.725.691.955 1.173.24.482.36 1.055.36 1.719ZM26.549 12.936c0 .1-.037.191-.111.273a.362.362 0 0 1-.263.109.597.597 0 0 1-.264-.068 8.123 8.123 0 0 0-.318-.178 1.828 1.828 0 0 0-.402-.163 1.474 1.474 0 0 0-.512-.082c-.452 0-.859.14-1.219.423-.35.273-.65.614-.9 1.023-.24.41-.424.846-.554 1.31-.13.463-.194.882-.194 1.254 0 .264.023.523.07.778.046.245.124.473.235.682.12.2.282.364.485.491.203.118.461.177.775.177.333 0 .651-.059.956-.177.305-.127.59-.291.858-.491.01-.291.056-.596.139-.914.092-.327.208-.646.346-.955.139-.318.296-.618.471-.9.185-.282.374-.532.568-.75l.18.109c-.102.309-.176.627-.222.955-.046.327-.069.65-.069.968 0 .328.028.637.083.928.055.29.152.545.29.764.14.209.329.377.569.504.24.119.549.178.928.178.461 0 .886-.105 1.274-.314.387-.21.729-.473 1.024-.791l.111.054a4.272 4.272 0 0 1-.65.914 5.738 5.738 0 0 1-.9.791c-.324.228-.67.41-1.04.546-.369.136-.733.205-1.093.205-.508 0-.924-.146-1.247-.437a2.152 2.152 0 0 1-.665-1.078 5.875 5.875 0 0 1-1.301.969c-.471.255-.97.382-1.496.382a2.38 2.38 0 0 1-1.039-.218 2.17 2.17 0 0 1-.748-.56 2.547 2.547 0 0 1-.47-.832 3.432 3.432 0 0 1-.153-1.023c0-.409.065-.827.194-1.255.139-.436.323-.864.554-1.282a7.54 7.54 0 0 1 .845-1.187 6.65 6.65 0 0 1 1.052-.982 5.327 5.327 0 0 1 1.219-.668 3.591 3.591 0 0 1 1.302-.246c.101 0 .226.014.374.041.147.018.29.055.429.11a.924.924 0 0 1 .346.231c.102.1.153.227.153.382Z" fill="#9494D6"/>
    <path d="M42.184 18.133a10.68 10.68 0 0 1-.568.942c-.194.3-.416.563-.665.79-.25.228-.53.41-.845.546a2.687 2.687 0 0 1-1.08.205c-.461 0-.858-.114-1.19-.341a3.007 3.007 0 0 1-.86-.873 5.539 5.539 0 0 1-.567-1.269 15.056 15.056 0 0 1-.346-1.446 16.532 16.532 0 0 1-.208-1.446l-.125-1.296c-.175.137-.387.4-.637.792-.25.382-.503.832-.762 1.35a21.268 21.268 0 0 0-.747 1.692c-.231.609-.42 1.21-.568 1.8-.028.127-.074.26-.139.396-.055.136-.129.259-.221.368a1.007 1.007 0 0 1-.305.287.697.697 0 0 1-.401.122c-.24 0-.416-.081-.527-.245a1.781 1.781 0 0 1-.221-.56 27.368 27.368 0 0 1-.568-3.314 33.024 33.024 0 0 1-.152-3.165c0-.255.041-.473.124-.655.093-.19.213-.345.36-.464.148-.127.323-.218.527-.272.203-.064.415-.096.637-.096h.124c.065 0 .125.01.18.027.056.01.102.028.139.055a.1.1 0 0 1 .041.11 17.725 17.725 0 0 0-.346 3.641c.01 1.228.074 2.41.194 3.547.101-.455.25-.969.443-1.541.203-.582.434-1.165.693-1.747.267-.59.553-1.15.858-1.677.314-.537.633-.987.956-1.35.157-.174.314-.32.47-.437a.972.972 0 0 1 .61-.191c.138 0 .254.027.346.082a.68.68 0 0 1 .222.204c.064.082.11.177.138.287.037.1.065.2.083.3.047.263.093.604.139 1.023.046.418.101.864.166 1.337.074.473.162.95.263 1.432.102.473.23.905.388 1.296.157.382.346.695.568.941.221.246.484.368.789.368.25 0 .49-.045.72-.136.24-.1.466-.223.679-.368.212-.155.41-.328.595-.519.185-.2.351-.395.499-.586l.097.054ZM50.396 18.133c-.203.337-.443.65-.72.942a4.794 4.794 0 0 1-.9.763 3.996 3.996 0 0 1-1.053.505c-.378.127-.77.191-1.177.191-.6 0-1.13-.1-1.593-.3a3.79 3.79 0 0 1-1.177-.805 4.666 4.666 0 0 1-.83-1.2 7.715 7.715 0 0 1-.527-1.419c-.13-.5-.221-1.01-.277-1.528a14.01 14.01 0 0 1-.083-1.487c0-.436.019-.882.056-1.336.036-.464.092-.937.166-1.42-.286.01-.568.014-.845.014h-.803c-.176 0-.374-.004-.596-.013a2.289 2.289 0 0 1-.623-.11 1.22 1.22 0 0 1-.485-.286c-.129-.127-.194-.313-.194-.559 0-.136.028-.246.084-.327a.397.397 0 0 1 .207-.178.747.747 0 0 1 .305-.082c.11-.018.226-.027.346-.027.139 0 .466.023.983.068.517.046 1.14.096 1.87.15a26.83 26.83 0 0 1 .886-3.164c.37-1.037.785-1.983 1.247-2.838h.194a47.78 47.78 0 0 0-.79 3.001 28.357 28.357 0 0 0-.498 3.07c.674.045 1.366.086 2.077.122.72.028 1.422.041 2.105.041 1.006 0 1.823-.009 2.451-.027.628-.018 1.122-.04 1.482-.068.425-.037.743-.073.956-.11l.055.233c-.554.127-1.187.25-1.897.368-.711.109-1.468.21-2.272.3-.803.082-1.634.155-2.492.218a82.49 82.49 0 0 1-2.562.15 5.525 5.525 0 0 0-.028.56v.545c0 .437.018.919.055 1.446.046.528.125 1.06.236 1.596.11.528.258 1.046.443 1.555.194.5.443.946.748 1.337.314.382.688.691 1.121.928.434.236.947.354 1.538.354.544 0 1.034-.118 1.468-.354a6.77 6.77 0 0 0 1.26-.873l.083.054Z" fill="#9494D6"/>
    <path d="M57.639 16.06c0 .636-.106 1.228-.319 1.773a4.204 4.204 0 0 1-.9 1.419c-.388.4-.854.714-1.398.941a4.528 4.528 0 0 1-1.787.341c-.582 0-1.108-.109-1.579-.327a3.612 3.612 0 0 1-1.19-.86 3.77 3.77 0 0 1-.762-1.268 4.63 4.63 0 0 1-.264-1.569c0-.464.065-.905.194-1.323.139-.418.328-.805.568-1.16a5.19 5.19 0 0 1 .859-.995c.332-.31.692-.587 1.08-.833l.166.123a5.333 5.333 0 0 0-.914 1.473 4.424 4.424 0 0 0-.332 1.706c0 .436.064.882.194 1.336.138.446.337.855.595 1.228.259.373.582.678.97.914.387.236.83.355 1.329.355.314 0 .61-.064.886-.191.277-.128.517-.3.72-.519.213-.218.379-.463.499-.736.13-.282.194-.573.194-.873 0-.291-.046-.573-.139-.846a2.858 2.858 0 0 0-.36-.778 2.981 2.981 0 0 0-.567-.654 3.15 3.15 0 0 0-.72-.492 2.3 2.3 0 0 0-.43-.163l-.43-.123a2.116 2.116 0 0 1-.207-.04 4.926 4.926 0 0 1-.208-.083.601.601 0 0 1-.166-.136.306.306 0 0 1-.07-.205c0-.163.06-.313.181-.45.12-.136.263-.255.43-.354.166-.11.34-.192.526-.246a1.52 1.52 0 0 1 .484-.096c.471 0 .886.119 1.247.355.36.236.66.537.9.9.24.364.42.764.54 1.2.12.437.18.856.18 1.256ZM66.571 17.151c0 .473-.087.919-.263 1.337-.175.418-.42.782-.734 1.091-.314.31-.683.555-1.108.737a3.347 3.347 0 0 1-2.312.123 3.358 3.358 0 0 1-.873-.423 3.194 3.194 0 0 1-.678-.682 2.547 2.547 0 0 1-.416-.873l.319-.082c.24.29.517.532.83.723.324.19.688.286 1.095.286.341 0 .655-.073.941-.218a2.33 2.33 0 0 0 .748-.573c.212-.236.374-.51.485-.818.12-.319.18-.642.18-.969 0-.391-.056-.714-.166-.968a1.876 1.876 0 0 0-.444-.655 2.67 2.67 0 0 0-.595-.464 44.864 44.864 0 0 0-.679-.41 6.092 6.092 0 0 1-.65-.463 2.303 2.303 0 0 1-.527-.668c-.009.536-.101 1.1-.277 1.691a8.713 8.713 0 0 1-.72 1.719 9.9 9.9 0 0 1-1.025 1.555 7.018 7.018 0 0 1-1.232 1.214l-.111-.191a4.42 4.42 0 0 0 .776-1.16 8.64 8.64 0 0 0 .54-1.46c.147-.518.254-1.036.318-1.554.074-.519.111-.992.111-1.419 0-.227-.023-.45-.07-.668a3.097 3.097 0 0 1-.069-.641c0-.255.074-.45.222-.587a.875.875 0 0 1 .596-.205c.184 0 .332.041.443.123.11.082.212.191.304.328.093.127.185.277.277.45.093.163.208.336.347.518.147.173.327.346.54.518.221.164.503.31.844.437.397.146.776.314 1.136.505.37.182.692.4.97.654.286.255.512.56.678.914.166.346.25.755.25 1.228ZM79.797 18.079c-.157.327-.351.654-.582.982-.221.318-.47.61-.748.873a3.872 3.872 0 0 1-.914.627 2.38 2.38 0 0 1-1.066.246c-.415 0-.776-.11-1.08-.327a2.713 2.713 0 0 1-.776-.833 5.436 5.436 0 0 1-.526-1.214 13.592 13.592 0 0 1-.346-1.405 26.17 26.17 0 0 1-.236-1.446c-.055-.482-.11-.923-.166-1.323a9.919 9.919 0 0 0-.803 1.214c-.24.428-.47.873-.692 1.337-.222.455-.439.919-.651 1.392-.213.472-.439.94-.679 1.404-.055.1-.11.21-.166.328-.055.109-.12.21-.194.3a.957.957 0 0 1-.263.245.663.663 0 0 1-.36.096.745.745 0 0 1-.333-.068.826.826 0 0 1-.36-.396 3.125 3.125 0 0 1-.069-.232c-.11-.39-.212-.882-.305-1.473a48.284 48.284 0 0 1-.374-3.942 49.26 49.26 0 0 1-.041-1.937c0-.846.055-1.714.166-2.606.11-.9.282-1.778.513-2.632.24-.855.54-1.66.9-2.415a9.004 9.004 0 0 1 1.302-2.005 5.905 5.905 0 0 1 1.703-1.364C73.297 1.168 74.017 1 74.81 1c.526 0 .942.155 1.247.464.304.3.457.732.457 1.296a6.67 6.67 0 0 1-.457 2.441 11.32 11.32 0 0 1-1.15 2.224c-.461.71-.978 1.382-1.55 2.019a54.014 54.014 0 0 1-1.635 1.746l-.18-.136c.23-.255.475-.569.734-.942.268-.382.526-.79.775-1.227.259-.446.504-.91.734-1.392.231-.49.434-.973.61-1.446.175-.473.314-.927.415-1.364.102-.446.153-.85.153-1.214a2.6 2.6 0 0 0-.056-.546 1.173 1.173 0 0 0-.194-.45.917.917 0 0 0-.36-.313.992.992 0 0 0-.512-.123c-.406 0-.79.154-1.15.464-.35.309-.673.727-.969 1.255a10.186 10.186 0 0 0-.79 1.814 24.053 24.053 0 0 0-.581 2.169 23.703 23.703 0 0 0-.36 2.291c-.083.773-.125 1.51-.125 2.21v1.433c0 .482.01.986.028 1.514.028.527.07 1.086.125 1.678.064.59.152 1.232.263 1.923.406-1.037.835-2.05 1.288-3.042.452-1 .941-1.914 1.468-2.742l.221-.354c.083-.119.171-.223.263-.314.093-.1.194-.182.305-.246a.711.711 0 0 1 .36-.095.51.51 0 0 1 .374.136.882.882 0 0 1 .222.314c.055.127.092.264.11.41.028.145.051.277.07.395.037.264.078.604.124 1.023.046.418.102.868.166 1.35.065.473.143.95.236 1.433.101.482.226.918.374 1.31.157.381.341.695.554.94.212.246.466.369.761.369.24 0 .48-.05.72-.15a3.732 3.732 0 0 0 1.302-.914c.194-.2.356-.396.485-.587l.11.055ZM115.734 26.413a2.738 2.738 0 0 1-1.025.464c-.36.082-.724.123-1.094.123-1.265 0-2.391-.186-3.379-.56a8.394 8.394 0 0 1-2.589-1.514 9.558 9.558 0 0 1-1.898-2.277 15.474 15.474 0 0 1-1.301-2.824 20.373 20.373 0 0 1-.79-3.165 30.894 30.894 0 0 1-.374-3.287 37.962 37.962 0 0 1-.055-3.22c.037-1.055.101-2.032.194-2.933-.166.246-.37.637-.61 1.173a69.97 69.97 0 0 0-.803 1.883 94.444 94.444 0 0 0-.9 2.36c-.314.846-.628 1.7-.942 2.564l-.9 2.551c-.286.828-.545 1.583-.775 2.265-.222.682-.416 1.26-.582 1.732-.157.482-.259.805-.305.969a9.09 9.09 0 0 1-.152.409c-.055.164-.13.323-.222.477a1.47 1.47 0 0 1-.304.396.536.536 0 0 1-.804-.041 1.636 1.636 0 0 1-.276-.464 6.097 6.097 0 0 1-.167-.545 13.907 13.907 0 0 1-.083-.437 23.099 23.099 0 0 1-.152-1.446 71.762 71.762 0 0 1-.125-1.937 141.6 141.6 0 0 1-.069-2.264l-.055-2.428-.028-2.401c0-.791-.005-1.528-.014-2.21V6.66a60.87 60.87 0 0 0-.734 1.732c-.277.7-.582 1.487-.914 2.36a255.6 255.6 0 0 0-1.025 2.824c-.35 1-.701 2.033-1.052 3.097a164.894 164.894 0 0 0-.997 3.219 77.23 77.23 0 0 0-.845 3.151c-.028.091-.065.2-.11.328a1.741 1.741 0 0 1-.153.381.99.99 0 0 1-.25.3.473.473 0 0 1-.346.137.537.537 0 0 1-.346-.123 1.192 1.192 0 0 1-.263-.3 1.948 1.948 0 0 1-.166-.368 1.836 1.836 0 0 1-.07-.355 11.586 11.586 0 0 1-.124-.75c-.028-.273-.056-.555-.083-.846l-.056-.846a71.656 71.656 0 0 0-.055-.764 85.189 85.189 0 0 1-.222-3.696 121.368 121.368 0 0 1 0-7.312c.047-1.2.111-2.414.194-3.642.028-.355.07-.75.125-1.187.055-.446.161-.864.318-1.255.167-.391.402-.718.707-.982.314-.264.738-.396 1.274-.396.129 0 .24.032.332.096.093.054.139.154.139.3V1.9l-.25 1.637c-.083.537-.17 1.087-.263 1.65-.221 1.82-.41 3.638-.568 5.457a67.22 67.22 0 0 0-.221 5.47c0 .719.014 1.428.041 2.128.028.7.079 1.405.153 2.115A821.86 821.86 0 0 0 91 15.187l1.288-3.942c.37-1.128.679-2.088.928-2.879l.651-2.005c.175-.537.314-.964.416-1.282.101-.328.184-.578.249-.75.065-.182.11-.314.138-.396.028-.082.056-.155.083-.218.139-.31.328-.587.568-.833.24-.245.55-.368.928-.368.259 0 .466.064.623.191.166.127.296.287.388.478.092.19.152.4.18.627.037.227.056.437.056.628-.019 1.41-.06 2.805-.125 4.187-.065 1.374-.12 2.738-.166 4.093-.046 1.355-.07 2.7-.07 4.038.01 1.336.074 2.669.194 3.996.37-1.073.711-2.082 1.025-3.028.314-.955.61-1.864.886-2.728.287-.864.559-1.696.817-2.497.268-.8.541-1.591.818-2.373.286-.782.581-1.564.886-2.346.305-.782.642-1.587 1.011-2.415.083-.164.175-.327.277-.49.101-.174.217-.328.346-.465.129-.136.277-.25.443-.34.166-.092.351-.137.554-.137.286 0 .513.09.679.273.166.182.291.4.374.654.092.255.152.523.18.805.027.273.041.505.041.696 0 .837-.028 1.764-.083 2.783-.055 1.01-.097 2.06-.125 3.15a57.564 57.564 0 0 0 .042 3.316c.046 1.118.171 2.2.374 3.246a13.95 13.95 0 0 0 .9 2.933c.397.91.933 1.7 1.607 2.374.673.682 1.504 1.218 2.492 1.61.997.39 2.193.586 3.587.586.212 0 .416-.018.609-.055.204-.027.397-.081.582-.163l.083.272Z" fill="#9494D6"/>
    <path d="M115.208 12.936c0 .1-.037.191-.111.273a.361.361 0 0 1-.263.109.595.595 0 0 1-.263-.068 7.957 7.957 0 0 0-.319-.178 1.806 1.806 0 0 0-.401-.163 1.478 1.478 0 0 0-.513-.082c-.452 0-.858.14-1.218.423a3.745 3.745 0 0 0-.9 1.023c-.241.41-.425.846-.554 1.31-.13.463-.194.882-.194 1.254 0 .264.023.523.069.778.046.245.125.473.235.682.12.2.282.364.485.491.203.118.462.177.776.177.332 0 .65-.059.955-.177a4.02 4.02 0 0 0 .859-.491 4.13 4.13 0 0 1 .138-.914c.093-.327.208-.646.346-.955.139-.318.296-.618.471-.9.185-.282.374-.532.568-.75l.18.109c-.101.309-.175.627-.221.955-.047.327-.07.65-.07.968 0 .328.028.637.083.928.056.29.153.545.291.764.139.209.328.377.568.504.24.119.549.178.928.178a2.64 2.64 0 0 0 1.274-.314c.388-.21.729-.473 1.025-.791l.111.054a4.33 4.33 0 0 1-.651.914 5.764 5.764 0 0 1-.9.791c-.324.228-.67.41-1.039.546a3.141 3.141 0 0 1-1.094.205c-.508 0-.923-.146-1.247-.437a2.151 2.151 0 0 1-.664-1.078 5.886 5.886 0 0 1-1.302.969 3.098 3.098 0 0 1-1.496.382c-.387 0-.734-.073-1.038-.218a2.165 2.165 0 0 1-.748-.56 2.552 2.552 0 0 1-.471-.832 3.419 3.419 0 0 1-.152-1.023c0-.409.064-.827.193-1.255a7.18 7.18 0 0 1 .554-1.282c.24-.418.522-.814.845-1.187.323-.373.674-.7 1.053-.982a5.32 5.32 0 0 1 1.218-.668 3.594 3.594 0 0 1 1.302-.246c.102 0 .226.014.374.041.148.018.291.055.429.11a.929.929 0 0 1 .347.231c.101.1.152.227.152.382Z" fill="#9494D6"/>
    <path d="M130.843 18.133c-.175.328-.365.641-.568.942-.194.3-.415.563-.664.79-.25.228-.531.41-.845.546a2.688 2.688 0 0 1-1.08.205c-.462 0-.859-.114-1.191-.341a2.999 2.999 0 0 1-.859-.873 5.539 5.539 0 0 1-.568-1.269 15.056 15.056 0 0 1-.346-1.446 16.573 16.573 0 0 1-.208-1.446l-.124-1.296c-.176.137-.388.4-.637.792-.25.382-.504.832-.762 1.35a21.051 21.051 0 0 0-.748 1.692c-.231.609-.42 1.21-.568 1.8-.027.127-.074.26-.138.396-.056.136-.129.259-.222.368a1.005 1.005 0 0 1-.304.287.698.698 0 0 1-.402.122c-.24 0-.416-.081-.526-.245a1.765 1.765 0 0 1-.222-.56 27.35 27.35 0 0 1-.568-3.314 33.187 33.187 0 0 1-.152-3.165c0-.255.042-.473.125-.655.092-.19.212-.345.36-.464.147-.127.323-.218.526-.272.203-.064.415-.096.637-.096h.125c.064 0 .124.01.18.027.055.01.101.028.138.055a.101.101 0 0 1 .042.11 17.74 17.74 0 0 0-.347 3.641c.01 1.228.074 2.41.194 3.547.102-.455.25-.969.443-1.541.204-.582.434-1.165.693-1.747.268-.59.554-1.15.859-1.677.313-.537.632-.987.955-1.35.157-.174.314-.32.471-.437a.971.971 0 0 1 .609-.191c.139 0 .254.027.347.082a.676.676 0 0 1 .221.204.755.755 0 0 1 .139.287c.037.1.064.2.083.3.046.263.092.604.138 1.023.046.418.102.864.166 1.337.074.473.162.95.263 1.432.102.473.231.905.388 1.296.157.382.346.695.568.941.222.246.485.368.789.368.25 0 .49-.045.721-.136.24-.1.466-.223.678-.368.212-.155.411-.328.596-.519.184-.2.35-.395.498-.586l.097.054Z" fill="#9494D6"/>
    <path d="M139 18.133c-.24.346-.531.669-.872.969-.333.3-.702.56-1.108.777a6.092 6.092 0 0 1-1.261.519 4.648 4.648 0 0 1-1.315.19 6.085 6.085 0 0 1-1.759-.245 3.966 3.966 0 0 1-1.426-.723 3.414 3.414 0 0 1-.956-1.228c-.231-.5-.346-1.082-.346-1.746 0-.654.12-1.264.36-1.828a4.678 4.678 0 0 1 1.011-1.486 4.825 4.825 0 0 1 1.523-1.01 4.76 4.76 0 0 1 1.87-.368c.314 0 .604.045.872.136.277.082.517.21.72.382.203.164.36.369.471.614.12.246.18.527.18.846 0 .382-.078.718-.235 1.01a2.63 2.63 0 0 1-.623.763c-.259.218-.554.4-.887.546a6.165 6.165 0 0 1-1.024.354c-.351.091-.702.16-1.053.205a8.964 8.964 0 0 1-.942.055h-.332c.12.827.452 1.46.997 1.896.545.436 1.297.655 2.257.655.684 0 1.348-.119 1.995-.355a6.217 6.217 0 0 0 1.772-.982l.111.054Zm-7.174-1.678h.347c.332 0 .674-.05 1.024-.15a3.24 3.24 0 0 0 .942-.463c.286-.21.522-.464.706-.764.185-.3.277-.641.277-1.023 0-.373-.083-.682-.249-.928-.157-.246-.434-.368-.831-.368a1.54 1.54 0 0 0-1.038.368 2.747 2.747 0 0 0-.679.887 4.506 4.506 0 0 0-.388 1.105 5.442 5.442 0 0 0-.111 1.023v.313Z" fill="#9494D6"/>
    <path d="M20.15 5.106c0 .746-.189 1.441-.567 2.087a5.767 5.767 0 0 1-1.454 1.678 7.161 7.161 0 0 1-1.98 1.119c-.73.263-1.45.386-2.161.368h-.222v-.246a5.774 5.774 0 0 0 1.717-.655 5.626 5.626 0 0 0 1.413-1.159c.406-.455.725-.964.956-1.528.24-.564.36-1.155.36-1.773 0-.41-.051-.796-.153-1.16a2.592 2.592 0 0 0-.47-.94 2.245 2.245 0 0 0-.818-.628c-.323-.155-.71-.232-1.163-.232-.646 0-1.302.095-1.966.286a9.073 9.073 0 0 0-1.925.805c-.619.346-1.2.755-1.745 1.228A9.41 9.41 0 0 0 8.559 5.91a7.639 7.639 0 0 0-.942 1.8 5.682 5.682 0 0 0-.346 1.951c0 .71.102 1.323.305 1.842.212.509.494.96.845 1.35.36.382.775.71 1.246.982.47.273.974.523 1.51.75.535.219 1.08.423 1.634.614.563.191 1.112.396 1.648.614.535.218 1.038.464 1.51.737a5.1 5.1 0 0 1 1.232.955c.36.363.641.8.845 1.31.212.5.318 1.09.318 1.773 0 .745-.157 1.41-.47 1.991a4.383 4.383 0 0 1-1.22 1.46c-.507.4-1.089.7-1.744.9a6.61 6.61 0 0 1-2.022.314c-.748 0-1.44-.127-2.078-.382a5.991 5.991 0 0 1-1.717-1.01 6.966 6.966 0 0 1-1.33-1.46 8.252 8.252 0 0 1-.913-1.704l.207-.11c.277.483.596.956.956 1.42.36.472.766.89 1.219 1.254.452.373.95.673 1.495.9a4.695 4.695 0 0 0 1.8.342 4.77 4.77 0 0 0 1.468-.219 3.542 3.542 0 0 0 1.178-.627c.332-.273.59-.61.775-1.01.194-.4.291-.854.291-1.364 0-.745-.162-1.36-.485-1.841a4.29 4.29 0 0 0-1.274-1.228 8.64 8.64 0 0 0-1.8-.86 134.68 134.68 0 0 0-2.077-.709 26.99 26.99 0 0 1-2.064-.818 7.318 7.318 0 0 1-1.8-1.16 5.258 5.258 0 0 1-1.274-1.718C5.162 12.259 5 11.413 5 10.412c0-.909.143-1.764.43-2.564.286-.81.678-1.55 1.176-2.224a9.49 9.49 0 0 1 1.787-1.8 11.645 11.645 0 0 1 2.202-1.364c.794-.373 1.62-.655 2.479-.846.858-.2 1.722-.3 2.59-.3.618 0 1.2.073 1.744.218.554.146 1.03.373 1.427.682.406.3.725.691.955 1.173.24.482.36 1.055.36 1.719ZM26.549 12.936c0 .1-.037.191-.111.273a.362.362 0 0 1-.263.109.597.597 0 0 1-.264-.068 8.123 8.123 0 0 0-.318-.178 1.828 1.828 0 0 0-.402-.163 1.474 1.474 0 0 0-.512-.082c-.452 0-.859.14-1.219.423-.35.273-.65.614-.9 1.023-.24.41-.424.846-.554 1.31-.13.463-.194.882-.194 1.254 0 .264.023.523.07.778.046.245.124.473.235.682.12.2.282.364.485.491.203.118.461.177.775.177.333 0 .651-.059.956-.177.305-.127.59-.291.858-.491.01-.291.056-.596.139-.914.092-.327.208-.646.346-.955.139-.318.296-.618.471-.9.185-.282.374-.532.568-.75l.18.109c-.102.309-.176.627-.222.955-.046.327-.069.65-.069.968 0 .328.028.637.083.928.055.29.152.545.29.764.14.209.329.377.569.504.24.119.549.178.928.178.461 0 .886-.105 1.274-.314.387-.21.729-.473 1.024-.791l.111.054a4.272 4.272 0 0 1-.65.914 5.738 5.738 0 0 1-.9.791c-.324.228-.67.41-1.04.546-.369.136-.733.205-1.093.205-.508 0-.924-.146-1.247-.437a2.152 2.152 0 0 1-.665-1.078 5.875 5.875 0 0 1-1.301.969c-.471.255-.97.382-1.496.382a2.38 2.38 0 0 1-1.039-.218 2.17 2.17 0 0 1-.748-.56 2.547 2.547 0 0 1-.47-.832 3.432 3.432 0 0 1-.153-1.023c0-.409.065-.827.194-1.255.139-.436.323-.864.554-1.282a7.54 7.54 0 0 1 .845-1.187 6.65 6.65 0 0 1 1.052-.982 5.327 5.327 0 0 1 1.219-.668 3.591 3.591 0 0 1 1.302-.246c.101 0 .226.014.374.041.147.018.29.055.429.11a.924.924 0 0 1 .346.231c.102.1.153.227.153.382Z" stroke="#9494D6" stroke-width="2" mask="url(#b)"/>
    <path d="M42.184 18.133a10.68 10.68 0 0 1-.568.942c-.194.3-.416.563-.665.79-.25.228-.53.41-.845.546a2.687 2.687 0 0 1-1.08.205c-.461 0-.858-.114-1.19-.341a3.007 3.007 0 0 1-.86-.873 5.539 5.539 0 0 1-.567-1.269 15.056 15.056 0 0 1-.346-1.446 16.532 16.532 0 0 1-.208-1.446l-.125-1.296c-.175.137-.387.4-.637.792-.25.382-.503.832-.762 1.35a21.268 21.268 0 0 0-.747 1.692c-.231.609-.42 1.21-.568 1.8-.028.127-.074.26-.139.396-.055.136-.129.259-.221.368a1.007 1.007 0 0 1-.305.287.697.697 0 0 1-.401.122c-.24 0-.416-.081-.527-.245a1.781 1.781 0 0 1-.221-.56 27.368 27.368 0 0 1-.568-3.314 33.024 33.024 0 0 1-.152-3.165c0-.255.041-.473.124-.655.093-.19.213-.345.36-.464.148-.127.323-.218.527-.272.203-.064.415-.096.637-.096h.124c.065 0 .125.01.18.027.056.01.102.028.139.055a.1.1 0 0 1 .041.11 17.725 17.725 0 0 0-.346 3.641c.01 1.228.074 2.41.194 3.547.101-.455.25-.969.443-1.541.203-.582.434-1.165.693-1.747.267-.59.553-1.15.858-1.677.314-.537.633-.987.956-1.35.157-.174.314-.32.47-.437a.972.972 0 0 1 .61-.191c.138 0 .254.027.346.082a.68.68 0 0 1 .222.204c.064.082.11.177.138.287.037.1.065.2.083.3.047.263.093.604.139 1.023.046.418.101.864.166 1.337.074.473.162.95.263 1.432.102.473.23.905.388 1.296.157.382.346.695.568.941.221.246.484.368.789.368.25 0 .49-.045.72-.136.24-.1.466-.223.679-.368.212-.155.41-.328.595-.519.185-.2.351-.395.499-.586l.097.054ZM50.396 18.133c-.203.337-.443.65-.72.942a4.794 4.794 0 0 1-.9.763 3.996 3.996 0 0 1-1.053.505c-.378.127-.77.191-1.177.191-.6 0-1.13-.1-1.593-.3a3.79 3.79 0 0 1-1.177-.805 4.666 4.666 0 0 1-.83-1.2 7.715 7.715 0 0 1-.527-1.419c-.13-.5-.221-1.01-.277-1.528a14.01 14.01 0 0 1-.083-1.487c0-.436.019-.882.056-1.336.036-.464.092-.937.166-1.42-.286.01-.568.014-.845.014h-.803c-.176 0-.374-.004-.596-.013a2.289 2.289 0 0 1-.623-.11 1.22 1.22 0 0 1-.485-.286c-.129-.127-.194-.313-.194-.559 0-.136.028-.246.084-.327a.397.397 0 0 1 .207-.178.747.747 0 0 1 .305-.082c.11-.018.226-.027.346-.027.139 0 .466.023.983.068.517.046 1.14.096 1.87.15a26.83 26.83 0 0 1 .886-3.164c.37-1.037.785-1.983 1.247-2.838h.194a47.78 47.78 0 0 0-.79 3.001 28.357 28.357 0 0 0-.498 3.07c.674.045 1.366.086 2.077.122.72.028 1.422.041 2.105.041 1.006 0 1.823-.009 2.451-.027.628-.018 1.122-.04 1.482-.068.425-.037.743-.073.956-.11l.055.233c-.554.127-1.187.25-1.897.368-.711.109-1.468.21-2.272.3-.803.082-1.634.155-2.492.218a82.49 82.49 0 0 1-2.562.15 5.525 5.525 0 0 0-.028.56v.545c0 .437.018.919.055 1.446.046.528.125 1.06.236 1.596.11.528.258 1.046.443 1.555.194.5.443.946.748 1.337.314.382.688.691 1.121.928.434.236.947.354 1.538.354.544 0 1.034-.118 1.468-.354a6.77 6.77 0 0 0 1.26-.873l.083.054Z" stroke="#9494D6" stroke-width="2" mask="url(#b)"/>
    <path d="M57.639 16.06c0 .636-.106 1.228-.319 1.773a4.204 4.204 0 0 1-.9 1.419c-.388.4-.854.714-1.398.941a4.528 4.528 0 0 1-1.787.341c-.582 0-1.108-.109-1.579-.327a3.612 3.612 0 0 1-1.19-.86 3.77 3.77 0 0 1-.762-1.268 4.63 4.63 0 0 1-.264-1.569c0-.464.065-.905.194-1.323.139-.418.328-.805.568-1.16a5.19 5.19 0 0 1 .859-.995c.332-.31.692-.587 1.08-.833l.166.123a5.333 5.333 0 0 0-.914 1.473 4.424 4.424 0 0 0-.332 1.706c0 .436.064.882.194 1.336.138.446.337.855.595 1.228.259.373.582.678.97.914.387.236.83.355 1.329.355.314 0 .61-.064.886-.191.277-.128.517-.3.72-.519.213-.218.379-.463.499-.736.13-.282.194-.573.194-.873 0-.291-.046-.573-.139-.846a2.858 2.858 0 0 0-.36-.778 2.981 2.981 0 0 0-.567-.654 3.15 3.15 0 0 0-.72-.492 2.3 2.3 0 0 0-.43-.163l-.43-.123a2.116 2.116 0 0 1-.207-.04 4.926 4.926 0 0 1-.208-.083.601.601 0 0 1-.166-.136.306.306 0 0 1-.07-.205c0-.163.06-.313.181-.45.12-.136.263-.255.43-.354.166-.11.34-.192.526-.246a1.52 1.52 0 0 1 .484-.096c.471 0 .886.119 1.247.355.36.236.66.537.9.9.24.364.42.764.54 1.2.12.437.18.856.18 1.256ZM66.571 17.151c0 .473-.087.919-.263 1.337-.175.418-.42.782-.734 1.091-.314.31-.683.555-1.108.737a3.347 3.347 0 0 1-2.312.123 3.358 3.358 0 0 1-.873-.423 3.194 3.194 0 0 1-.678-.682 2.547 2.547 0 0 1-.416-.873l.319-.082c.24.29.517.532.83.723.324.19.688.286 1.095.286.341 0 .655-.073.941-.218a2.33 2.33 0 0 0 .748-.573c.212-.236.374-.51.485-.818.12-.319.18-.642.18-.969 0-.391-.056-.714-.166-.968a1.876 1.876 0 0 0-.444-.655 2.67 2.67 0 0 0-.595-.464 44.864 44.864 0 0 0-.679-.41 6.092 6.092 0 0 1-.65-.463 2.303 2.303 0 0 1-.527-.668c-.009.536-.101 1.1-.277 1.691a8.713 8.713 0 0 1-.72 1.719 9.9 9.9 0 0 1-1.025 1.555 7.018 7.018 0 0 1-1.232 1.214l-.111-.191a4.42 4.42 0 0 0 .776-1.16 8.64 8.64 0 0 0 .54-1.46c.147-.518.254-1.036.318-1.554.074-.519.111-.992.111-1.419 0-.227-.023-.45-.07-.668a3.097 3.097 0 0 1-.069-.641c0-.255.074-.45.222-.587a.875.875 0 0 1 .596-.205c.184 0 .332.041.443.123.11.082.212.191.304.328.093.127.185.277.277.45.093.163.208.336.347.518.147.173.327.346.54.518.221.164.503.31.844.437.397.146.776.314 1.136.505.37.182.692.4.97.654.286.255.512.56.678.914.166.346.25.755.25 1.228ZM79.797 18.079c-.157.327-.351.654-.582.982-.221.318-.47.61-.748.873a3.872 3.872 0 0 1-.914.627 2.38 2.38 0 0 1-1.066.246c-.415 0-.776-.11-1.08-.327a2.713 2.713 0 0 1-.776-.833 5.436 5.436 0 0 1-.526-1.214 13.592 13.592 0 0 1-.346-1.405 26.17 26.17 0 0 1-.236-1.446c-.055-.482-.11-.923-.166-1.323a9.919 9.919 0 0 0-.803 1.214c-.24.428-.47.873-.692 1.337-.222.455-.439.919-.651 1.392-.213.472-.439.94-.679 1.404-.055.1-.11.21-.166.328-.055.109-.12.21-.194.3a.957.957 0 0 1-.263.245.663.663 0 0 1-.36.096.745.745 0 0 1-.333-.068.826.826 0 0 1-.36-.396 3.125 3.125 0 0 1-.069-.232c-.11-.39-.212-.882-.305-1.473a48.284 48.284 0 0 1-.374-3.942 49.26 49.26 0 0 1-.041-1.937c0-.846.055-1.714.166-2.606.11-.9.282-1.778.513-2.632.24-.855.54-1.66.9-2.415a9.004 9.004 0 0 1 1.302-2.005 5.905 5.905 0 0 1 1.703-1.364C73.297 1.168 74.017 1 74.81 1c.526 0 .942.155 1.247.464.304.3.457.732.457 1.296a6.67 6.67 0 0 1-.457 2.441 11.32 11.32 0 0 1-1.15 2.224c-.461.71-.978 1.382-1.55 2.019a54.014 54.014 0 0 1-1.635 1.746l-.18-.136c.23-.255.475-.569.734-.942.268-.382.526-.79.775-1.227.259-.446.504-.91.734-1.392.231-.49.434-.973.61-1.446.175-.473.314-.927.415-1.364.102-.446.153-.85.153-1.214a2.6 2.6 0 0 0-.056-.546 1.173 1.173 0 0 0-.194-.45.917.917 0 0 0-.36-.313.992.992 0 0 0-.512-.123c-.406 0-.79.154-1.15.464-.35.309-.673.727-.969 1.255a10.186 10.186 0 0 0-.79 1.814 24.053 24.053 0 0 0-.581 2.169 23.703 23.703 0 0 0-.36 2.291c-.083.773-.125 1.51-.125 2.21v1.433c0 .482.01.986.028 1.514.028.527.07 1.086.125 1.678.064.59.152 1.232.263 1.923.406-1.037.835-2.05 1.288-3.042.452-1 .941-1.914 1.468-2.742l.221-.354c.083-.119.171-.223.263-.314.093-.1.194-.182.305-.246a.711.711 0 0 1 .36-.095.51.51 0 0 1 .374.136.882.882 0 0 1 .222.314c.055.127.092.264.11.41.028.145.051.277.07.395.037.264.078.604.124 1.023.046.418.102.868.166 1.35.065.473.143.95.236 1.433.101.482.226.918.374 1.31.157.381.341.695.554.94.212.246.466.369.761.369.24 0 .48-.05.72-.15a3.732 3.732 0 0 0 1.302-.914c.194-.2.356-.396.485-.587l.11.055ZM115.734 26.413a2.738 2.738 0 0 1-1.025.464c-.36.082-.724.123-1.094.123-1.265 0-2.391-.186-3.379-.56a8.394 8.394 0 0 1-2.589-1.514 9.558 9.558 0 0 1-1.898-2.277 15.474 15.474 0 0 1-1.301-2.824 20.373 20.373 0 0 1-.79-3.165 30.894 30.894 0 0 1-.374-3.287 37.962 37.962 0 0 1-.055-3.22c.037-1.055.101-2.032.194-2.933-.166.246-.37.637-.61 1.173a69.97 69.97 0 0 0-.803 1.883 94.444 94.444 0 0 0-.9 2.36c-.314.846-.628 1.7-.942 2.564l-.9 2.551c-.286.828-.545 1.583-.775 2.265-.222.682-.416 1.26-.582 1.732-.157.482-.259.805-.305.969a9.09 9.09 0 0 1-.152.409c-.055.164-.13.323-.222.477a1.47 1.47 0 0 1-.304.396.536.536 0 0 1-.804-.041 1.636 1.636 0 0 1-.276-.464 6.097 6.097 0 0 1-.167-.545 13.907 13.907 0 0 1-.083-.437 23.099 23.099 0 0 1-.152-1.446 71.762 71.762 0 0 1-.125-1.937 141.6 141.6 0 0 1-.069-2.264l-.055-2.428-.028-2.401c0-.791-.005-1.528-.014-2.21V6.66a60.87 60.87 0 0 0-.734 1.732c-.277.7-.582 1.487-.914 2.36a255.6 255.6 0 0 0-1.025 2.824c-.35 1-.701 2.033-1.052 3.097a164.894 164.894 0 0 0-.997 3.219 77.23 77.23 0 0 0-.845 3.151c-.028.091-.065.2-.11.328a1.741 1.741 0 0 1-.153.381.99.99 0 0 1-.25.3.473.473 0 0 1-.346.137.537.537 0 0 1-.346-.123 1.192 1.192 0 0 1-.263-.3 1.948 1.948 0 0 1-.166-.368 1.836 1.836 0 0 1-.07-.355 11.586 11.586 0 0 1-.124-.75c-.028-.273-.056-.555-.083-.846l-.056-.846a71.656 71.656 0 0 0-.055-.764 85.189 85.189 0 0 1-.222-3.696 121.368 121.368 0 0 1 0-7.312c.047-1.2.111-2.414.194-3.642.028-.355.07-.75.125-1.187.055-.446.161-.864.318-1.255.167-.391.402-.718.707-.982.314-.264.738-.396 1.274-.396.129 0 .24.032.332.096.093.054.139.154.139.3V1.9l-.25 1.637c-.083.537-.17 1.087-.263 1.65-.221 1.82-.41 3.638-.568 5.457a67.22 67.22 0 0 0-.221 5.47c0 .719.014 1.428.041 2.128.028.7.079 1.405.153 2.115A821.86 821.86 0 0 0 91 15.187l1.288-3.942c.37-1.128.679-2.088.928-2.879l.651-2.005c.175-.537.314-.964.416-1.282.101-.328.184-.578.249-.75.065-.182.11-.314.138-.396.028-.082.056-.155.083-.218.139-.31.328-.587.568-.833.24-.245.55-.368.928-.368.259 0 .466.064.623.191.166.127.296.287.388.478.092.19.152.4.18.627.037.227.056.437.056.628-.019 1.41-.06 2.805-.125 4.187-.065 1.374-.12 2.738-.166 4.093-.046 1.355-.07 2.7-.07 4.038.01 1.336.074 2.669.194 3.996.37-1.073.711-2.082 1.025-3.028.314-.955.61-1.864.886-2.728.287-.864.559-1.696.817-2.497.268-.8.541-1.591.818-2.373.286-.782.581-1.564.886-2.346.305-.782.642-1.587 1.011-2.415.083-.164.175-.327.277-.49.101-.174.217-.328.346-.465.129-.136.277-.25.443-.34.166-.092.351-.137.554-.137.286 0 .513.09.679.273.166.182.291.4.374.654.092.255.152.523.18.805.027.273.041.505.041.696 0 .837-.028 1.764-.083 2.783-.055 1.01-.097 2.06-.125 3.15a57.564 57.564 0 0 0 .042 3.316c.046 1.118.171 2.2.374 3.246a13.95 13.95 0 0 0 .9 2.933c.397.91.933 1.7 1.607 2.374.673.682 1.504 1.218 2.492 1.61.997.39 2.193.586 3.587.586.212 0 .416-.018.609-.055.204-.027.397-.081.582-.163l.083.272Z" stroke="#9494D6" stroke-width="2" mask="url(#b)"/>
    <path d="M115.208 12.936c0 .1-.037.191-.111.273a.361.361 0 0 1-.263.109.595.595 0 0 1-.263-.068 7.957 7.957 0 0 0-.319-.178 1.806 1.806 0 0 0-.401-.163 1.478 1.478 0 0 0-.513-.082c-.452 0-.858.14-1.218.423a3.745 3.745 0 0 0-.9 1.023c-.241.41-.425.846-.554 1.31-.13.463-.194.882-.194 1.254 0 .264.023.523.069.778.046.245.125.473.235.682.12.2.282.364.485.491.203.118.462.177.776.177.332 0 .65-.059.955-.177a4.02 4.02 0 0 0 .859-.491 4.13 4.13 0 0 1 .138-.914c.093-.327.208-.646.346-.955.139-.318.296-.618.471-.9.185-.282.374-.532.568-.75l.18.109c-.101.309-.175.627-.221.955-.047.327-.07.65-.07.968 0 .328.028.637.083.928.056.29.153.545.291.764.139.209.328.377.568.504.24.119.549.178.928.178a2.64 2.64 0 0 0 1.274-.314c.388-.21.729-.473 1.025-.791l.111.054a4.33 4.33 0 0 1-.651.914 5.764 5.764 0 0 1-.9.791c-.324.228-.67.41-1.039.546a3.141 3.141 0 0 1-1.094.205c-.508 0-.923-.146-1.247-.437a2.151 2.151 0 0 1-.664-1.078 5.886 5.886 0 0 1-1.302.969 3.098 3.098 0 0 1-1.496.382c-.387 0-.734-.073-1.038-.218a2.165 2.165 0 0 1-.748-.56 2.552 2.552 0 0 1-.471-.832 3.419 3.419 0 0 1-.152-1.023c0-.409.064-.827.193-1.255a7.18 7.18 0 0 1 .554-1.282c.24-.418.522-.814.845-1.187.323-.373.674-.7 1.053-.982a5.32 5.32 0 0 1 1.218-.668 3.594 3.594 0 0 1 1.302-.246c.102 0 .226.014.374.041.148.018.291.055.429.11a.929.929 0 0 1 .347.231c.101.1.152.227.152.382Z" stroke="#9494D6" stroke-width="2" mask="url(#b)"/>
    <path d="M130.843 18.133c-.175.328-.365.641-.568.942-.194.3-.415.563-.664.79-.25.228-.531.41-.845.546a2.688 2.688 0 0 1-1.08.205c-.462 0-.859-.114-1.191-.341a2.999 2.999 0 0 1-.859-.873 5.539 5.539 0 0 1-.568-1.269 15.056 15.056 0 0 1-.346-1.446 16.573 16.573 0 0 1-.208-1.446l-.124-1.296c-.176.137-.388.4-.637.792-.25.382-.504.832-.762 1.35a21.051 21.051 0 0 0-.748 1.692c-.231.609-.42 1.21-.568 1.8-.027.127-.074.26-.138.396-.056.136-.129.259-.222.368a1.005 1.005 0 0 1-.304.287.698.698 0 0 1-.402.122c-.24 0-.416-.081-.526-.245a1.765 1.765 0 0 1-.222-.56 27.35 27.35 0 0 1-.568-3.314 33.187 33.187 0 0 1-.152-3.165c0-.255.042-.473.125-.655.092-.19.212-.345.36-.464.147-.127.323-.218.526-.272.203-.064.415-.096.637-.096h.125c.064 0 .124.01.18.027.055.01.101.028.138.055a.101.101 0 0 1 .042.11 17.74 17.74 0 0 0-.347 3.641c.01 1.228.074 2.41.194 3.547.102-.455.25-.969.443-1.541.204-.582.434-1.165.693-1.747.268-.59.554-1.15.859-1.677.313-.537.632-.987.955-1.35.157-.174.314-.32.471-.437a.971.971 0 0 1 .609-.191c.139 0 .254.027.347.082a.676.676 0 0 1 .221.204.755.755 0 0 1 .139.287c.037.1.064.2.083.3.046.263.092.604.138 1.023.046.418.102.864.166 1.337.074.473.162.95.263 1.432.102.473.231.905.388 1.296.157.382.346.695.568.941.222.246.485.368.789.368.25 0 .49-.045.721-.136.24-.1.466-.223.678-.368.212-.155.411-.328.596-.519.184-.2.35-.395.498-.586l.097.054Z" stroke="#9494D6" stroke-width="2" mask="url(#b)"/>
    <path d="M139 18.133c-.24.346-.531.669-.872.969-.333.3-.702.56-1.108.777a6.092 6.092 0 0 1-1.261.519 4.648 4.648 0 0 1-1.315.19 6.085 6.085 0 0 1-1.759-.245 3.966 3.966 0 0 1-1.426-.723 3.414 3.414 0 0 1-.956-1.228c-.231-.5-.346-1.082-.346-1.746 0-.654.12-1.264.36-1.828a4.678 4.678 0 0 1 1.011-1.486 4.825 4.825 0 0 1 1.523-1.01 4.76 4.76 0 0 1 1.87-.368c.314 0 .604.045.872.136.277.082.517.21.72.382.203.164.36.369.471.614.12.246.18.527.18.846 0 .382-.078.718-.235 1.01a2.63 2.63 0 0 1-.623.763c-.259.218-.554.4-.887.546a6.165 6.165 0 0 1-1.024.354c-.351.091-.702.16-1.053.205a8.964 8.964 0 0 1-.942.055h-.332c.12.827.452 1.46.997 1.896.545.436 1.297.655 2.257.655.684 0 1.348-.119 1.995-.355a6.217 6.217 0 0 0 1.772-.982l.111.054Zm-7.174-1.678h.347c.332 0 .674-.05 1.024-.15a3.24 3.24 0 0 0 .942-.463c.286-.21.522-.464.706-.764.185-.3.277-.641.277-1.023 0-.373-.083-.682-.249-.928-.157-.246-.434-.368-.831-.368a1.54 1.54 0 0 0-1.038.368 2.747 2.747 0 0 0-.679.887 4.506 4.506 0 0 0-.388 1.105 5.442 5.442 0 0 0-.111 1.023v.313Z" stroke="#9494D6" stroke-width="2" mask="url(#b)"/>
  </g>
  <defs>
    <filter id="a" x="0" y="0" width="144.484" height="36" filterUnits="userSpaceOnUse" color-interpolation-filters="sRGB">
      <feFlood flood-opacity="0" result="BackgroundImageFix"/>
      <feColorMatrix in="SourceAlpha" values="0 0 0 0 0 0 0 0 0 0 0 0 0 0 0 0 0 0 127 0" result="hardAlpha"/>
      <feOffset dy="4"/>
      <feGaussianBlur stdDeviation="2"/>
      <feComposite in2="hardAlpha" operator="out"/>
      <feColorMatrix values="0 0 0 0 0.298039 0 0 0 0 0.298039 0 0 0 0 0.470588 0 0 0 0.27 0"/>
      <feBlend in2="BackgroundImageFix" result="effect1_dropShadow"/>
      <feBlend in="SourceGraphic" in2="effect1_dropShadow" result="shape"/>
    </filter>
  </defs>
</svg>
