<svg width="445" height="276" viewBox="0 0 445 276" fill="none" xmlns="http://www.w3.org/2000/svg">
<g id="pc">
<path id="Vector" d="M291 255.181V258H206V255.708C211.193 253.827 215.701 250.472 218.95 246.071C222.199 241.67 224.044 236.419 224.25 230.986C224.456 225.553 223.014 220.182 220.107 215.556C217.2 210.929 212.959 207.255 207.922 205H290.419C286.629 206.711 283.275 209.232 280.604 212.379C277.933 215.527 276.012 219.221 274.982 223.191C273.348 229.523 274.063 236.22 276.998 242.081C279.933 247.943 284.896 252.586 291 255.181Z" fill="#C8CAD7"/>
<path id="Vector_2" opacity="0.1" d="M290 205C286.232 206.787 282.898 209.42 280.243 212.707C277.588 215.995 275.679 219.853 274.654 224H223.346C222.322 219.853 220.412 215.994 217.757 212.707C215.102 209.42 211.768 206.786 208 205H290Z" fill="black"/>
<path id="Vector_3" d="M109 190V206.5C109 215.611 115.496 223 123.503 223H372.497C380.508 223 387 215.611 387 206.5V190H109Z" fill="#C8CAD7"/>
<path id="Vector_4" opacity="0.1" d="M291 256.029V258H206V256.397C208.331 255.802 210.536 254.996 212.557 254H285.781C287.409 254.803 289.159 255.484 291 256.029V256.029Z" fill="black"/>
<path id="Vector_5" d="M315.513 255H181.487C179.561 255 178 256.469 178 258.28V259.72C178 261.531 179.561 263 181.487 263H315.513C317.439 263 319 261.531 319 259.72V258.28C319 256.469 317.439 255 315.513 255Z" fill="#C8CAD7"/>
<path id="Vector_6" d="M387 14.5283C387 10.6751 385.472 6.97982 382.752 4.25524C380.032 1.53065 376.344 0 372.497 0H123.503C119.657 0 115.968 1.53065 113.248 4.25524C110.528 6.97982 109 10.6751 109 14.5283V194H387V14.5283Z" fill="#474157"/>
<path id="Vector_7" d="M249 11C251.209 11 253 9.20914 253 7C253 4.79086 251.209 3 249 3C246.791 3 245 4.79086 245 7C245 9.20914 246.791 11 249 11Z" fill="white"/>
<path id="Vector_8" d="M248 215C252.418 215 256 211.418 256 207C256 202.582 252.418 199 248 199C243.582 199 240 202.582 240 207C240 211.418 243.582 215 248 215Z" fill="white"/>
<g id="vs-code">
<path id="Vector_9" d="M379 20.1731V174.838C378.999 176.739 378.477 178.561 377.55 179.904C376.623 181.247 375.366 182.001 374.056 182H201.944C201.295 182 200.652 181.815 200.052 181.455C199.452 181.095 198.907 180.566 198.447 179.9C197.988 179.234 197.624 178.443 197.376 177.572C197.127 176.702 197 175.769 197 174.827V20.1731C197 18.2707 197.521 16.4462 198.448 15.101C199.375 13.7557 200.633 13 201.944 13H374.056C375.367 13 376.625 13.7557 377.552 15.101C378.479 16.4462 379 18.2707 379 20.1731V20.1731Z" fill="#4C4C78"/>
<path id="Vector_10" d="M203.851 36.3456C205.785 36.2298 206.313 36.0809 206.313 35.7335C206.313 35.3861 205.768 35.0221 204.264 34.8236V34.2611L206.099 32.8384H203.95V31.7134H207.338L207.437 32.8384L205.685 34.1618C207.057 34.4596 207.586 35.0056 207.586 35.6508C207.586 36.6434 206.479 37.3878 203.934 37.5202L203.851 36.3456ZM208.892 37.3878L208.776 36.3787C210.429 35.2206 211.255 34.4596 211.255 33.7152C211.255 32.9707 210.726 32.888 208.941 32.8384L209.057 31.6472C211.751 31.6472 212.544 32.4082 212.544 33.3016C212.544 34.1949 211.718 35.1875 210.363 36.2132H212.66V37.3217L208.892 37.3878ZM203.851 47.3471C205.785 47.2313 206.313 47.0658 206.313 46.7184C206.313 46.371 205.768 46.0236 204.264 45.8251V45.2626L206.099 43.8233H203.95V42.7149H207.338L207.437 43.8233L205.685 45.1633C207.057 45.4446 207.586 46.007 207.586 46.6357C207.586 47.6448 206.479 48.3893 203.934 48.5217L203.851 47.3471ZM208.892 48.3893L208.776 47.3802C210.429 46.2056 211.255 45.4611 211.255 44.7167C211.255 43.9722 210.726 43.8895 208.941 43.8399L209.057 42.6322C211.751 42.6322 212.544 43.4097 212.544 44.2865C212.544 45.1633 211.718 46.189 210.363 47.2147H212.66V48.3231L208.892 48.3893ZM203.851 58.3486C205.785 58.2327 206.313 58.0673 206.313 57.7199C206.313 57.3725 205.768 57.025 204.264 56.8265V56.264L206.099 54.8248H203.95V53.7163H207.338L207.437 54.8248L205.685 56.1648C207.057 56.446 207.586 57.0085 207.586 57.6372C207.586 58.6463 206.479 59.3908 203.934 59.5231L203.851 58.3486ZM212.362 58.4974V59.4735H211.156V58.4974H208.776C208.757 56.8926 208.941 55.2919 209.321 53.7329L210.71 53.8156L209.801 57.389H211.156V55.5196L212.362 55.3872V57.3063H212.974L212.858 58.4147L212.362 58.4974ZM203.851 69.35C205.785 69.2177 206.313 69.0688 206.313 68.7214C206.313 68.3739 205.768 68.01 204.264 67.828V67.249L206.099 65.8262H203.95V64.7013H207.338L207.437 65.8262L205.685 67.1663C207.057 67.4475 207.586 68.01 207.586 68.6387C207.586 69.6313 206.479 70.3923 203.934 70.5081L203.851 69.35ZM208.958 70.5246V69.3335C210.891 69.1846 211.486 69.0026 211.486 68.5228C211.486 68.0431 210.842 67.828 209.106 67.6295L209.288 64.7013H212.594L212.494 65.8428H210.329V66.8189C212.164 67.1001 212.709 67.7453 212.709 68.4732C212.643 69.5155 211.552 70.3757 208.958 70.5246V70.5246ZM203.851 80.335C205.785 80.2192 206.313 80.0702 206.313 79.7228C206.313 79.3754 205.768 79.0115 204.264 78.813V78.2505L206.099 76.8277H203.95V75.7028H207.338L207.437 76.8277L205.685 78.1678C207.057 78.449 207.586 79.0115 207.586 79.6401C207.586 80.6327 206.479 81.3772 203.934 81.5096L203.851 80.335ZM208.677 79.2596C208.677 77.6053 209.602 76.3976 211.701 75.5042L212.23 76.5796C210.842 77.0924 210.263 77.5887 210.032 78.2339C211.321 77.4895 212.792 78.1016 212.792 79.5574C212.789 79.8391 212.729 80.1171 212.615 80.3746C212.501 80.6321 212.335 80.8636 212.129 81.0548C211.922 81.246 211.679 81.393 211.413 81.4866C211.148 81.5803 210.866 81.6187 210.585 81.5995C210.305 81.5803 210.031 81.504 209.781 81.3751C209.531 81.2462 209.309 81.0674 209.131 80.8499C208.952 80.6324 208.819 80.3805 208.741 80.1099C208.663 79.8393 208.641 79.5556 208.677 79.2762V79.2596ZM211.585 79.6401C211.585 78.846 210.908 78.5317 209.933 78.9784V79.1273C209.933 80.1034 210.346 80.5004 210.858 80.5004C211.371 80.5004 211.585 80.2192 211.585 79.6401ZM203.851 91.3365C205.785 91.2206 206.313 91.0718 206.313 90.7243C206.313 90.3769 205.768 90.0129 204.264 89.8144V89.2519L206.099 87.8292H203.95V86.7042H207.338L207.437 87.8292L205.685 89.1527C207.057 89.4505 207.586 89.9964 207.586 90.6416C207.586 91.6342 206.479 92.3787 203.934 92.511L203.851 91.3365ZM209.321 92.3291C209.878 90.7812 210.604 89.2997 211.486 87.9119H208.842L208.941 86.7538H212.792V87.8789C211.916 89.3433 211.195 90.8959 210.643 92.511L209.321 92.3291ZM203.851 102.338C205.785 102.222 206.313 102.057 206.313 101.709C206.313 101.362 205.768 101.014 204.264 100.816V100.253L206.099 98.8141H203.95V97.7057H207.338L207.437 98.8141L205.685 100.154C207.057 100.435 207.586 100.998 207.586 101.627C207.586 102.636 206.479 103.38 203.934 103.513L203.851 102.338ZM208.677 102.057C208.979 101.963 209.245 101.776 209.437 101.523C209.628 101.271 209.736 100.964 209.745 100.647C209.755 100.33 209.664 100.018 209.488 99.7543C209.311 99.4909 209.056 99.2895 208.759 99.1781C208.759 98.384 209.454 97.5237 210.776 97.5237C211.817 97.5237 212.643 98.0697 212.643 98.9134C212.624 99.221 212.52 99.5172 212.342 99.7686C212.164 100.02 211.919 100.217 211.635 100.336C212.23 100.684 212.759 101.114 212.759 101.809C212.759 102.503 211.949 103.463 210.61 103.463C209.272 103.463 208.677 102.933 208.677 102.057V102.057ZM211.503 102.057C211.503 101.643 210.974 101.329 210.379 100.998C210.238 101.095 210.122 101.223 210.039 101.372C209.956 101.521 209.908 101.687 209.9 101.858C209.9 102.272 210.148 102.586 210.726 102.586C211.305 102.586 211.519 102.305 211.519 102.007L211.503 102.057ZM210.974 100.055C211.104 99.965 211.211 99.8468 211.288 99.7093C211.366 99.5717 211.411 99.4184 211.42 99.2608C211.42 98.8803 211.222 98.5991 210.693 98.5991C210.164 98.5991 209.999 98.8307 209.999 99.0788C209.999 99.327 210.462 99.724 210.99 100.005L210.974 100.055ZM203.851 113.339C205.785 113.224 206.313 113.058 206.313 112.711C206.313 112.363 205.768 111.999 204.264 111.817V111.238L206.099 109.816H203.95V108.707H207.338L207.437 109.816L205.685 111.156C207.057 111.437 207.586 111.999 207.586 112.628C207.586 113.621 206.479 114.382 203.934 114.514L203.851 113.339ZM209.222 113.505C210.61 112.975 211.189 112.496 211.42 111.85C210.131 112.578 208.66 111.983 208.66 110.527C208.663 110.245 208.723 109.967 208.837 109.71C208.952 109.452 209.117 109.221 209.324 109.03C209.53 108.838 209.774 108.691 210.039 108.598C210.304 108.504 210.586 108.466 210.867 108.485C211.147 108.504 211.421 108.58 211.671 108.709C211.922 108.838 212.143 109.017 212.322 109.234C212.5 109.452 212.633 109.704 212.711 109.974C212.789 110.245 212.811 110.529 212.775 110.808C212.775 112.463 211.85 113.67 209.751 114.564L209.222 113.505ZM211.552 111.106V110.957C211.552 109.981 211.139 109.584 210.627 109.584C210.115 109.584 209.867 109.865 209.867 110.428C209.867 111.238 210.544 111.536 211.552 111.106V111.106ZM207.289 124.407V125.383H206.082V124.407H203.719C203.7 122.802 203.884 121.202 204.264 119.642L205.652 119.725L204.743 123.299H206.099V121.512L207.305 121.38V123.299H207.9L207.801 124.407H207.289ZM208.578 122.637C208.578 120.801 209.42 119.576 210.792 119.576C212.164 119.576 212.875 120.652 212.875 122.438C212.875 124.225 212.032 125.499 210.643 125.499C209.255 125.499 208.578 124.424 208.578 122.637ZM209.817 122.521L211.552 121.628C211.42 120.999 211.139 120.619 210.71 120.619C210.28 120.619 209.817 121.247 209.817 122.405V122.521ZM211.635 122.67L209.982 123.547C210.115 124.159 210.379 124.523 210.809 124.523C211.238 124.523 211.635 123.828 211.635 122.67V122.67ZM207.289 135.409V136.368H206.082V135.409H203.719C203.699 133.804 203.882 132.203 204.264 130.644L205.652 130.727L204.743 134.3H206.099V132.513L207.305 132.381V134.3H207.9L207.801 135.409H207.289ZM208.826 136.368V135.293H210.329V132.381H208.991V131.438L210.329 131.289V130.611L211.585 130.512V135.276H212.941L212.841 136.352L208.826 136.368ZM207.289 146.393V147.37H206.082V146.393H203.719C203.699 144.794 203.883 143.199 204.264 141.645L205.652 141.728L204.743 145.285H206.099V143.515L207.305 143.383V145.285H207.9L207.801 146.393H207.289ZM208.892 147.37L208.776 146.36C210.429 145.186 211.255 144.441 211.255 143.697C211.255 142.952 210.726 142.87 208.941 142.82L209.057 141.612C211.751 141.612 212.544 142.39 212.544 143.349C212.544 144.309 211.718 145.235 210.363 146.261H212.66V147.37H208.892ZM207.289 157.395V158.371H206.082V157.395H203.719C203.7 155.79 203.884 154.189 204.264 152.63L205.652 152.713L204.743 156.287H206.099V154.45L207.305 154.334V156.237H207.9L207.801 157.345L207.289 157.395ZM208.925 157.329C210.858 157.213 211.387 157.048 211.387 156.7C211.387 156.353 210.842 156.005 209.338 155.807V155.244L211.172 153.805H209.024V152.697H212.329L212.428 153.805L210.677 155.145C212.048 155.426 212.577 155.989 212.577 156.617C212.577 157.627 211.47 158.371 208.925 158.503V157.329ZM207.289 168.396V169.339H206.082V168.363H203.719C203.7 166.759 203.884 165.158 204.264 163.599L205.652 163.681L204.743 167.255H206.099V165.468L207.305 165.336V167.255H207.9L207.801 168.363L207.289 168.396ZM212.362 168.396V169.339H211.156V168.363H208.776C208.757 166.759 208.941 165.158 209.321 163.599L210.71 163.681L209.801 167.255H211.156V165.468L212.362 165.336V167.255H212.974L212.858 168.363L212.362 168.396Z" fill="#706D84"/>
<g id="code">
<path id="line" opacity="0.39" d="M339.17 32.2461H221.897V37.325H339.17V32.2461Z" fill="#A3848D"/>
<path id="line_2" opacity="0.39" d="M346.773 43.1482H221.898V48.227H346.773V43.1482Z" fill="#A58492"/>
<path id="line_3" opacity="0.39" d="M323.669 54.1499H221.898V59.2288H323.669V54.1499Z" fill="#A284A3"/>
<path id="line_4" opacity="0.39" d="M308.96 65.2505H221.898V70.3294H308.96V65.2505Z" fill="#9084A0"/>
<path id="line_5" opacity="0.39" d="M294.086 76.1362H221.898V81.2151H294.086V76.1362Z" fill="#83859E"/>
<path id="line_6" opacity="0.39" d="M342.675 87.2202H221.898V92.2991H342.675V87.2202Z" fill="#83929B"/>
<path id="line_7" opacity="0.39" d="M363.564 98.5693H221.898V103.648H363.564V98.5693Z" fill="#829995"/>
<path id="line_8" opacity="0.39" d="M340.129 109.223H221.898V114.302H340.129V109.223Z" fill="#84998B"/>
<path id="line_9" opacity="0.39" d="M333.486 120.225H221.898V125.304H333.486V120.225Z" fill="#899985"/>
<path id="line_10" opacity="0.39" d="M274.948 131.127H221.898V136.206H274.948V131.127Z" fill="#979987"/>
<path id="line_11" opacity="0.39" d="M376.389 142.129H221.898V147.208H376.389V142.129Z" fill="#999488"/>
<path id="line_12" opacity="0.39" d="M333.486 153.13H221.898V158.209H333.486V153.13Z" fill="#998E8A"/>
<path id="line_13" opacity="0.39" d="M304.382 164.131H221.7V169.21H304.382V164.131Z" fill="#998C8C"/>
</g>
<path id="Vector_11" d="M379 21H197C197 19.9493 197.127 18.9087 197.376 17.9379C197.624 16.967 197.988 16.0849 198.447 15.3419C198.907 14.599 199.452 14.0097 200.052 13.6079C200.652 13.206 201.295 12.9995 201.944 13H374.056C374.705 12.9995 375.348 13.206 375.948 13.6079C376.548 14.0097 377.093 14.599 377.553 15.3419C378.012 16.0849 378.376 16.967 378.624 17.9379C378.873 18.9087 379 19.9493 379 21Z" fill="#C8CAD7"/>
<path id="Vector_12" d="M208.5 19C209.881 19 211 17.8807 211 16.5C211 15.1193 209.881 14 208.5 14C207.119 14 206 15.1193 206 16.5C206 17.8807 207.119 19 208.5 19Z" fill="#E84D4D"/>
<path id="Vector_13" d="M214.5 19C215.881 19 217 17.8807 217 16.5C217 15.1193 215.881 14 214.5 14C213.119 14 212 15.1193 212 16.5C212 17.8807 213.119 19 214.5 19Z" fill="#F2DD77"/>
<path id="Vector_14" d="M220.5 19C221.881 19 223 17.8807 223 16.5C223 15.1193 221.881 14 220.5 14C219.119 14 218 15.1193 218 16.5C218 17.8807 219.119 19 220.5 19Z" fill="#4EB785"/>
</g>
<g id="website">
<path id="Vector_15" d="M187.299 18.7749H122.826C120.021 18.7749 117.748 19.8534 117.748 21.1838V179.747C117.748 181.078 120.021 182.156 122.826 182.156H187.299C190.103 182.156 192.377 181.078 192.377 179.747V21.1838C192.377 19.8534 190.103 18.7749 187.299 18.7749Z" fill="#F0F0F2"/>
<g id="Group 1">
<path id="Vector_16" d="M180.841 21.5457H132.211C129.678 21.5457 127.625 23.377 127.625 25.6362V91.7195C127.625 93.9786 129.678 95.81 132.211 95.81H180.841C183.373 95.81 185.426 93.9786 185.426 91.7195V25.6362C185.426 23.377 183.373 21.5457 180.841 21.5457Z" fill="#C2E7EF"/>
<path id="Vector_17" opacity="0.81" d="M134.95 84.4358H154.706" stroke="white" stroke-width="1.2" stroke-miterlimit="10" stroke-linecap="round"/>
<path id="Vector_18" opacity="0.81" d="M134.438 73.9568H165.132" stroke="white" stroke-width="1.2" stroke-miterlimit="10" stroke-linecap="round"/>
<path id="Vector_19" opacity="0.68" d="M134.524 68.647H163.14" stroke="white" stroke-width="1.2" stroke-miterlimit="10" stroke-linecap="round"/>
<path id="Vector_20" opacity="0.68" d="M134.623 63.3511H154.18" stroke="white" stroke-width="1.2" stroke-miterlimit="10" stroke-linecap="round"/>
<g id="Vector_21" style="mix-blend-mode:overlay" opacity="0.48">
<path d="M166.497 20.2239H144.451C139.063 20.2239 134.694 24.5497 134.694 29.8859V43.2523C134.694 48.5885 139.063 52.9143 144.451 52.9143H166.497C171.886 52.9143 176.254 48.5885 176.254 43.2523V29.8859C176.254 24.5497 171.886 20.2239 166.497 20.2239Z" fill="white"/>
</g>
</g>
<g id="Group">
<path id="Vector_22" d="M177.579 107.892H133.473C130.85 107.892 128.723 109.998 128.723 112.596V172.653C128.723 175.251 130.85 177.358 133.473 177.358H177.579C180.203 177.358 182.33 175.251 182.33 172.653V112.596C182.33 109.998 180.203 107.892 177.579 107.892Z" fill="#BDC0F4"/>
<path id="Vector_23" opacity="0.81" d="M137.669 143.075H154.125" stroke="white" stroke-width="1.2" stroke-miterlimit="10" stroke-linecap="round"/>
<path id="Vector_24" opacity="0.81" d="M137.669 136.568H161.749" stroke="white" stroke-width="1.2" stroke-miterlimit="10" stroke-linecap="round"/>
<path id="Vector_25" opacity="0.81" d="M137.669 129.723H169.444" stroke="white" stroke-width="1.2" stroke-miterlimit="10" stroke-linecap="round"/>
<path id="Vector_26" opacity="0.81" d="M137.669 122.272H175.076" stroke="white" stroke-width="1.2" stroke-miterlimit="10" stroke-linecap="round"/>
<path id="Vector_27" opacity="0.81" d="M137.669 114.808H169.444" stroke="white" stroke-width="1.2" stroke-miterlimit="10" stroke-linecap="round"/>
</g>
<path id="Vector_28" d="M185.131 13.7031H124.993C120.992 13.7031 117.748 16.947 117.748 20.9484H192.377C192.377 16.947 189.133 13.7031 185.131 13.7031Z" fill="#DDDDDD"/>
<path id="Vector_29" d="M123.5 19C124.328 19 125 18.3284 125 17.5C125 16.6716 124.328 16 123.5 16C122.672 16 122 16.6716 122 17.5C122 18.3284 122.672 19 123.5 19Z" fill="#E84D4D"/>
<path id="Vector_30" d="M127.5 19C128.328 19 129 18.3284 129 17.5C129 16.6716 128.328 16 127.5 16C126.672 16 126 16.6716 126 17.5C126 18.3284 126.672 19 127.5 19Z" fill="#F2DD77"/>
<path id="Vector_31" d="M131.5 19C132.328 19 133 18.3284 133 17.5C133 16.6716 132.328 16 131.5 16C130.672 16 130 16.6716 130 17.5C130 18.3284 130.672 19 131.5 19Z" fill="#4EB785"/>
</g>
<g id="terminal">
<path id="Vector_32" d="M371.998 97.958H267.564V180.686H371.998V97.958Z" fill="#333333"/>
<path id="Vector_33" d="M268.978 89.5073H370.155C370.644 89.5073 371.112 89.7016 371.458 90.0475C371.803 90.3935 371.998 90.8627 371.998 91.3519V100.746H267.371V91.116C267.371 90.6893 267.541 90.2802 267.842 89.9785C268.143 89.6768 268.552 89.5073 268.978 89.5073Z" fill="#D3D3D3"/>
<path id="Vector_34" d="M273.392 97.9367C274.623 97.9367 275.62 96.938 275.62 95.706C275.62 94.4741 274.623 93.4753 273.392 93.4753C272.161 93.4753 271.164 94.4741 271.164 95.706C271.164 96.938 272.161 97.9367 273.392 97.9367Z" fill="#E84D4D"/>
<path id="Vector_35" d="M281.727 97.9367C282.958 97.9367 283.955 96.938 283.955 95.706C283.955 94.4741 282.958 93.4753 281.727 93.4753C280.496 93.4753 279.499 94.4741 279.499 95.706C279.499 96.938 280.496 97.9367 281.727 97.9367Z" fill="#F2DD77"/>
<path id="Vector_36" d="M289.676 97.9367C290.907 97.9367 291.905 96.938 291.905 95.706C291.905 94.4741 290.907 93.4753 289.676 93.4753C288.446 93.4753 287.448 94.4741 287.448 95.706C287.448 96.938 288.446 97.9367 289.676 97.9367Z" fill="#4EB785"/>
<path id="Vector_37" d="M277.077 116.919C276.849 116.918 276.628 116.834 276.456 116.683C276.37 116.608 276.301 116.516 276.254 116.413C276.206 116.309 276.182 116.196 276.182 116.082C276.182 115.968 276.206 115.856 276.254 115.752C276.301 115.648 276.37 115.556 276.456 115.482L279.37 112.736L276.456 109.969C276.37 109.897 276.302 109.807 276.254 109.705C276.207 109.603 276.183 109.492 276.183 109.38C276.183 109.267 276.207 109.156 276.254 109.054C276.302 108.953 276.37 108.862 276.456 108.79C276.538 108.708 276.635 108.643 276.741 108.599C276.848 108.555 276.962 108.532 277.077 108.532C277.193 108.532 277.307 108.555 277.414 108.599C277.52 108.643 277.617 108.708 277.699 108.79L281.256 112.136C281.34 112.211 281.406 112.304 281.451 112.407C281.495 112.511 281.516 112.623 281.513 112.736C281.513 112.846 281.491 112.954 281.446 113.053C281.402 113.153 281.337 113.243 281.256 113.315L277.699 116.683C277.525 116.831 277.306 116.915 277.077 116.919V116.919Z" fill="#83E5AB"/>
<path id="cursor" d="M288.262 116.082C288.259 115.969 288.234 115.858 288.189 115.755C288.143 115.652 288.078 115.559 287.996 115.482C287.915 115.404 287.818 115.343 287.713 115.303C287.608 115.262 287.496 115.243 287.384 115.246H282.198C282.089 115.246 281.98 115.267 281.879 115.309C281.777 115.351 281.685 115.413 281.608 115.491C281.53 115.568 281.468 115.661 281.426 115.762C281.384 115.864 281.363 115.972 281.363 116.082C281.363 116.192 281.384 116.301 281.426 116.402C281.468 116.504 281.53 116.596 281.608 116.674C281.685 116.751 281.777 116.813 281.879 116.855C281.98 116.897 282.089 116.919 282.198 116.919H287.384C287.496 116.921 287.608 116.902 287.713 116.862C287.818 116.821 287.915 116.76 287.996 116.683C288.078 116.605 288.143 116.512 288.189 116.409C288.234 116.306 288.259 116.195 288.262 116.082Z" fill="#83E5AB"/>
</g>
<path id="desk" d="M437.11 263H7.89007C3.53251 263 0 265.91 0 269.5C0 273.09 3.53251 276 7.89007 276H437.11C441.467 276 445 273.09 445 269.5C445 265.91 441.467 263 437.11 263Z" fill="#404040"/>
<g id="coffee-cup">
<path id="Vector_38" d="M51.0039 234.467C49.5134 234.467 48.0564 234.929 46.817 235.796C45.5777 236.663 44.6118 237.895 44.0414 239.337C43.471 240.778 43.3218 242.364 43.6126 243.895C43.9033 245.425 44.6211 246.831 45.675 247.934C46.729 249.037 48.0718 249.789 49.5337 250.093C50.9956 250.398 52.5109 250.241 53.8879 249.644C55.265 249.047 56.442 248.036 57.2701 246.739C58.0982 245.441 58.5402 243.916 58.5402 242.356C58.5402 241.32 58.3453 240.294 57.9665 239.337C57.5878 238.379 57.0327 237.51 56.3329 236.777C55.6331 236.045 54.8023 235.464 53.8879 235.067C52.9736 234.671 51.9936 234.467 51.0039 234.467ZM51.0039 247.21C50.0867 247.21 49.19 246.926 48.4274 246.392C47.6647 245.859 47.0703 245.101 46.7193 244.213C46.3683 243.326 46.2764 242.35 46.4554 241.408C46.6343 240.467 47.076 239.602 47.7246 238.923C48.3732 238.244 49.1996 237.781 50.0992 237.594C50.9988 237.407 51.9313 237.503 52.7787 237.87C53.6261 238.238 54.3505 238.86 54.8601 239.658C55.3697 240.457 55.6416 241.395 55.6416 242.356C55.6416 243.643 55.153 244.878 54.2833 245.788C53.4135 246.699 52.2339 247.21 51.0039 247.21Z" fill="#4C4C78"/>
<path id="Vector_39" opacity="0.1" d="M51.0039 234.467C49.5134 234.467 48.0564 234.929 46.817 235.796C45.5777 236.663 44.6118 237.895 44.0414 239.337C43.471 240.778 43.3218 242.364 43.6126 243.895C43.9033 245.425 44.6211 246.831 45.675 247.934C46.729 249.037 48.0718 249.789 49.5337 250.093C50.9956 250.398 52.5109 250.241 53.8879 249.644C55.265 249.047 56.442 248.036 57.2701 246.739C58.0982 245.441 58.5402 243.916 58.5402 242.356C58.5402 241.32 58.3453 240.294 57.9665 239.337C57.5878 238.379 57.0327 237.51 56.3329 236.777C55.6331 236.045 54.8023 235.464 53.8879 235.067C52.9736 234.671 51.9936 234.467 51.0039 234.467ZM51.0039 247.21C50.0867 247.21 49.19 246.926 48.4274 246.392C47.6647 245.859 47.0703 245.101 46.7193 244.213C46.3683 243.326 46.2764 242.35 46.4554 241.408C46.6343 240.467 47.076 239.602 47.7246 238.923C48.3732 238.244 49.1996 237.781 50.0992 237.594C50.9988 237.407 51.9313 237.503 52.7787 237.87C53.6261 238.238 54.3505 238.86 54.8601 239.658C55.3697 240.457 55.6416 241.395 55.6416 242.356C55.6416 243.643 55.153 244.878 54.2833 245.788C53.4135 246.699 52.2339 247.21 51.0039 247.21Z" fill="#4C4C78"/>
<path id="Vector_40" d="M51.7391 228.398H80.7246V256.434C80.7246 258.011 80.126 259.524 79.0604 260.64C77.9949 261.755 76.5497 262.382 75.0427 262.382H57.421C55.9141 262.382 54.4689 261.755 53.4033 260.64C52.3377 259.524 51.7391 258.011 51.7391 256.434V228.398Z" fill="#4C4C78"/>
<path id="Vector_41" opacity="0.1" d="M75.5072 228.398V256.465C75.5072 258.034 74.9117 259.539 73.8517 260.649C72.7917 261.758 71.3541 262.382 69.855 262.382H72.7536C74.2526 262.382 75.6903 261.758 76.7503 260.649C77.8103 259.539 78.4058 258.034 78.4058 256.465V228.398H75.5072Z" fill="black"/>
</g>
<g id="mouse">
<path id="Vector_42" fill-rule="evenodd" clip-rule="evenodd" d="M368.493 262.928H339.915C336.167 252.347 372.141 252.056 368.493 262.928Z" fill="#BABCBE"/>
<path id="Vector_43" fill-rule="evenodd" clip-rule="evenodd" d="M339.974 259.794C342.853 253.155 365.357 252.751 368.414 259.794C363.914 261.35 359.079 262.152 354.194 262.152C349.309 262.152 344.474 261.35 339.974 259.794V259.794Z" fill="#E5E6E7"/>
<path id="Vector_44" fill-rule="evenodd" clip-rule="evenodd" d="M355.574 255.077C355.574 255.116 355.556 255.153 355.522 255.18C355.489 255.207 355.444 255.222 355.397 255.222H352.991C352.944 255.222 352.899 255.207 352.865 255.18C352.832 255.153 352.813 255.116 352.813 255.077V254.479C352.813 254.302 353.326 254.156 353.937 254.156H354.45C355.062 254.156 355.574 254.302 355.574 254.479V255.077Z" fill="#424243"/>
</g>
</g>
</svg>
